<svg width="134" height="65" viewBox="0 0 134 65" fill="none" xmlns="http://www.w3.org/2000/svg">
<path d="M21.891 0L0 21.892L8.484 30.374L21.892 16.967L35.299 30.374L43.783 21.892L21.891 0Z" fill="#C5010A"/>
<path d="M0.0003 43.1001L21.8913 64.9921L43.7823 43.1001L21.8913 21.2091L0.0003 43.1001Z" fill="#C5010A"/>
<path fill-rule="evenodd" clip-rule="evenodd" d="M74.3085 38.5068C75.0225 37.9998 75.5255 37.3068 75.8185 36.4268C76.1115 35.5478 76.2595 34.5288 76.2595 33.3718V25.3608C76.2595 24.1888 76.1075 23.1698 75.8065 22.3058C75.5065 21.4418 74.9945 20.7728 74.2735 20.2968C73.5525 19.8208 72.5735 19.5838 71.3375 19.5838C70.0855 19.5838 69.0985 19.8208 68.3785 20.2968C67.6565 20.7728 67.1415 21.4418 66.8325 22.3058C66.5235 23.1698 66.3695 24.1888 66.3695 25.3608V33.3488C66.3695 34.5058 66.5145 35.5318 66.8085 36.4268C67.1015 37.3218 67.6085 38.0198 68.3305 38.5198C69.0515 39.0188 70.0535 39.2678 71.3375 39.2678C72.6055 39.2678 73.5955 39.0148 74.3085 38.5068ZM68.4495 35.8798C68.2825 35.2708 68.1995 34.5608 68.1995 33.7528V25.0278C68.1995 24.2198 68.2825 23.5148 68.4495 22.9118C68.6155 22.3108 68.9255 21.8468 69.3765 21.5218C69.8285 21.1968 70.4815 21.0338 71.3375 21.0338C72.1775 21.0338 72.8195 21.1968 73.2625 21.5218C73.7065 21.8468 74.0115 22.3108 74.1785 22.9118C74.3455 23.5148 74.4285 24.2198 74.4285 25.0278V33.7528C74.4285 34.5608 74.3455 35.2708 74.1785 35.8798C74.0115 36.4898 73.7065 36.9658 73.2625 37.3068C72.8195 37.6478 72.1775 37.8168 71.3375 37.8168C70.4815 37.8168 69.8285 37.6478 69.3765 37.3068C68.9255 36.9658 68.6155 36.4898 68.4495 35.8798Z" fill="#C5010A"/>
<path d="M60.33 19.5839C61.488 19.5839 62.395 19.8059 63.052 20.2499C63.71 20.6929 64.182 21.3229 64.467 22.1399C64.752 22.9559 64.895 23.9269 64.895 25.0519V26.2169H63.183V25.0999C63.183 24.2599 63.115 23.5379 62.981 22.9359C62.846 22.3339 62.573 21.8659 62.161 21.5329C61.748 21.1999 61.147 21.0339 60.354 21.0339C59.483 21.0339 58.828 21.2129 58.393 21.5689C57.956 21.9259 57.663 22.4289 57.513 23.0789C57.363 23.7289 57.287 24.4809 57.287 25.3369V33.5389C57.287 34.4889 57.378 35.2819 57.561 35.9159C57.742 36.5499 58.056 37.0249 58.5 37.3429C58.944 37.6589 59.562 37.8169 60.354 37.8169C61.162 37.8169 61.769 37.6439 62.173 37.2949C62.577 36.9459 62.846 36.4589 62.981 35.8329C63.115 35.2069 63.183 34.4739 63.183 33.6339V32.3739H64.895V33.5149C64.895 34.6409 64.764 35.6349 64.502 36.4979C64.241 37.3619 63.781 38.0399 63.123 38.5309C62.466 39.0219 61.534 39.2679 60.33 39.2679C59.031 39.2679 58.029 38.9989 57.323 38.4599C56.617 37.9209 56.13 37.1959 55.861 36.2839C55.591 35.3729 55.457 34.3629 55.457 33.2529V25.5989C55.457 24.4099 55.595 23.3639 55.873 22.4609C56.15 21.5569 56.646 20.8529 57.359 20.3449C58.072 19.8379 59.062 19.5839 60.33 19.5839Z" fill="#C5010A"/>
<path d="M114.244 45.3612H115.978V45.0262H114.657V44.1452H115.861V43.8182H114.657V42.9682H115.978V42.6332H114.244V45.3612Z" fill="#C5010A"/>
<path d="M111.17 42.6334L112.538 44.6874V42.6334H112.951V45.3614H112.538L111.17 43.3074V45.3614H110.757V42.6334H111.17Z" fill="#C5010A"/>
<path d="M109.463 45.3617H109.05V42.6337H109.463V45.3617Z" fill="#C5010A"/>
<path d="M119.346 43.8026H120.667V42.6336H121.08V45.3616H120.667V44.1416H119.346V45.3616H118.933V42.6336H119.346V43.8026Z" fill="#C5010A"/>
<path d="M122.373 45.3612H124.107V45.0262H122.786V44.1452H123.99V43.8182H122.786V42.9682H124.107V42.6332H122.373V45.3612Z" fill="#C5010A"/>
<path fill-rule="evenodd" clip-rule="evenodd" d="M127.222 43.4481C127.222 43.6171 127.177 43.7701 127.087 43.9081C126.997 44.0461 126.858 44.1441 126.668 44.2041L127.249 45.3611H126.77L126.239 44.2621H125.752V45.3611H125.339V42.6341H126.278C126.494 42.6341 126.671 42.6701 126.811 42.7421C126.949 42.8151 127.053 42.9131 127.12 43.0371C127.188 43.1601 127.222 43.2971 127.222 43.4481ZM125.752 43.9501H126.255C126.442 43.9501 126.579 43.9051 126.666 43.8141C126.753 43.7231 126.797 43.6051 126.797 43.4601C126.797 43.3141 126.754 43.1981 126.668 43.1111C126.582 43.0231 126.443 42.9801 126.251 42.9801H125.752V43.9501Z" fill="#C5010A"/>
<path d="M128.449 45.3612H130.182V45.0262H128.861V44.1452H130.065V43.8182H128.861V42.9682H130.182V42.6332H128.449V45.3612Z" fill="#C5010A"/>
<path d="M83.6519 39.0306L80.0139 23.7206L79.6339 39.0306H78.1359L78.6119 19.7746H80.4179L84.2219 36.4866L88.0969 19.7746H89.9039L90.3789 39.0306H88.8809L88.5009 23.6966L84.8169 39.0306H83.6519Z" fill="#C5010A"/>
<path fill-rule="evenodd" clip-rule="evenodd" d="M99.9236 29.2362C100.597 28.7762 101.081 28.1622 101.375 27.3932C101.668 26.6252 101.814 25.7892 101.814 24.8852C101.814 23.8552 101.675 22.9602 101.398 22.1992C101.121 21.4382 100.649 20.8432 99.9836 20.4162C99.3176 19.9882 98.4066 19.7742 97.2496 19.7742H92.6366V39.0302H94.4446V29.9252H97.2726C98.3666 29.9252 99.2506 29.6952 99.9236 29.2362ZM94.4446 28.5702V21.1292H96.7736C97.6306 21.1292 98.2916 21.2362 98.7586 21.4502C99.2256 21.6642 99.5546 22.0452 99.7456 22.5912C99.9356 23.1372 100.031 23.9032 100.031 24.8852C100.031 25.8042 99.9206 26.5342 99.6986 27.0722C99.4756 27.6112 99.1236 27.9962 98.6396 28.2252C98.1566 28.4552 97.5266 28.5702 96.7506 28.5702H94.4446Z" fill="#C5010A"/>
<path fill-rule="evenodd" clip-rule="evenodd" d="M107.117 19.7744L111.206 39.0304H109.422L108.471 33.8714H103.883L102.909 39.0304H101.149L105.214 19.7744H107.117ZM106.189 22.1744L104.145 32.5634H108.234L106.189 22.1744Z" fill="#C5010A"/>
<path d="M120.025 34.7274L113.891 19.7744H112.584V39.0304H114.153V23.9114L120.31 39.0304H121.594V19.7744H120.025V34.7274Z" fill="#C5010A"/>
<path d="M128.82 39.0302H127.061V32.6342L122.71 19.7742H124.469L127.94 30.4712L131.269 19.7742H133.051L128.82 32.6342V39.0302Z" fill="#C5010A"/>
<path d="M56.634 43.9501L55.991 42.6341H55.524L56.428 44.3551V45.3611H56.841V44.3551L57.737 42.6341H57.274L56.634 43.9501Z" fill="#C5010A"/>
<path fill-rule="evenodd" clip-rule="evenodd" d="M59.8962 42.5866C60.1662 42.5866 60.4022 42.6466 60.6052 42.7656C60.8082 42.8856 60.9662 43.0506 61.0782 43.2626C61.1912 43.4746 61.2482 43.7196 61.2482 43.9966C61.2482 44.2756 61.1912 44.5206 61.0782 44.7326C60.9662 44.9436 60.8082 45.1096 60.6052 45.2286C60.4022 45.3486 60.1662 45.4086 59.8962 45.4086C59.6262 45.4086 59.3892 45.3486 59.1872 45.2286C58.9832 45.1096 58.8252 44.9436 58.7112 44.7326C58.5972 44.5206 58.5402 44.2756 58.5402 43.9966C58.5402 43.7196 58.5972 43.4746 58.7112 43.2626C58.8252 43.0506 58.9832 42.8856 59.1872 42.7656C59.3892 42.6466 59.6262 42.5866 59.8962 42.5866ZM60.3852 44.9126C60.5232 44.8296 60.6322 44.7106 60.7102 44.5546C60.7882 44.3986 60.8272 44.2126 60.8272 43.9966C60.8272 43.7826 60.7882 43.5956 60.7102 43.4406C60.6322 43.2836 60.5232 43.1646 60.3852 43.0816C60.2462 42.9986 60.0832 42.9566 59.8962 42.9566C59.7092 42.9566 59.5452 42.9986 59.4042 43.0816C59.2652 43.1646 59.1562 43.2836 59.0792 43.4406C59.0032 43.5956 58.9652 43.7826 58.9652 43.9966C58.9652 44.2126 59.0032 44.3986 59.0792 44.5546C59.1562 44.7106 59.2652 44.8296 59.4042 44.9126C59.5452 44.9956 59.7092 45.0376 59.8962 45.0376C60.0832 45.0376 60.2462 44.9956 60.3852 44.9126Z" fill="#C5010A"/>
<path d="M64.1077 44.3407C64.1077 44.5787 64.0507 44.7547 63.9367 44.8657C63.8227 44.9787 63.6697 45.0337 63.4767 45.0337C63.2817 45.0337 63.1277 44.9787 63.0127 44.8657C62.8987 44.7547 62.8407 44.5787 62.8407 44.3407V42.6337H62.4277V44.3367C62.4277 44.5807 62.4747 44.7817 62.5667 44.9407C62.6587 45.0987 62.7837 45.2167 62.9407 45.2927C63.0977 45.3697 63.2737 45.4077 63.4687 45.4077C63.6617 45.4077 63.8367 45.3697 63.9967 45.2927C64.1567 45.2167 64.2837 45.0987 64.3787 44.9407C64.4737 44.7817 64.5207 44.5807 64.5207 44.3367V42.6337H64.1077V44.3407Z" fill="#C5010A"/>
<path fill-rule="evenodd" clip-rule="evenodd" d="M67.6743 43.4481C67.6743 43.6171 67.6293 43.7701 67.5393 43.9081C67.4493 44.0461 67.3103 44.1441 67.1203 44.2041L67.7013 45.3611H67.2223L66.6913 44.2621H66.2043V45.3611H65.7913V42.6341H66.7303C66.9463 42.6341 67.1233 42.6701 67.2633 42.7421C67.4013 42.8151 67.5053 42.9131 67.5723 43.0371C67.6403 43.1601 67.6743 43.2971 67.6743 43.4481ZM66.2043 43.9501H66.7073C66.8943 43.9501 67.0313 43.9051 67.1183 43.8141C67.2053 43.7231 67.2493 43.6051 67.2493 43.4601C67.2493 43.3141 67.2063 43.1981 67.1203 43.1111C67.0343 43.0231 66.8953 42.9801 66.7033 42.9801H66.2043V43.9501Z" fill="#C5010A"/>
<path d="M71.8352 42.9569C72.0352 42.9569 72.1952 43.0039 72.3142 43.0979C72.4342 43.1899 72.5122 43.3159 72.5492 43.4759H73.0082C72.9542 43.1939 72.8252 42.9769 72.6222 42.8199C72.4202 42.6649 72.1592 42.5869 71.8392 42.5869C71.5692 42.5869 71.3362 42.6459 71.1402 42.7659C70.9432 42.8859 70.7922 43.0509 70.6862 43.2629C70.5792 43.4749 70.5262 43.7209 70.5262 44.0009C70.5262 44.2789 70.5792 44.5239 70.6862 44.7359C70.7922 44.9469 70.9432 45.1119 71.1402 45.2299C71.3362 45.3489 71.5692 45.4079 71.8392 45.4079C72.1592 45.4079 72.4202 45.3309 72.6222 45.1779C72.8252 45.0249 72.9542 44.8129 73.0082 44.5429H72.5492C72.5122 44.6959 72.4342 44.8169 72.3142 44.9049C72.1952 44.9939 72.0352 45.0379 71.8352 45.0379C71.5632 45.0379 71.3472 44.9449 71.1892 44.7609C71.0302 44.5769 70.9512 44.3229 70.9512 44.0009C70.9512 43.6769 71.0302 43.4209 71.1892 43.2349C71.3472 43.0499 71.5632 42.9569 71.8352 42.9569Z" fill="#C5010A"/>
<path fill-rule="evenodd" clip-rule="evenodd" d="M75.4636 42.5866C75.7336 42.5866 75.9696 42.6466 76.1726 42.7656C76.3756 42.8856 76.5336 43.0506 76.6456 43.2626C76.7586 43.4746 76.8156 43.7196 76.8156 43.9966C76.8156 44.2756 76.7586 44.5206 76.6456 44.7326C76.5336 44.9436 76.3756 45.1096 76.1726 45.2286C75.9696 45.3486 75.7336 45.4086 75.4636 45.4086C75.1936 45.4086 74.9566 45.3486 74.7546 45.2286C74.5506 45.1096 74.3926 44.9436 74.2786 44.7326C74.1646 44.5206 74.1076 44.2756 74.1076 43.9966C74.1076 43.7196 74.1646 43.4746 74.2786 43.2626C74.3926 43.0506 74.5506 42.8856 74.7546 42.7656C74.9566 42.6466 75.1936 42.5866 75.4636 42.5866ZM75.9526 44.9126C76.0906 44.8296 76.1996 44.7106 76.2776 44.5546C76.3556 44.3986 76.3946 44.2126 76.3946 43.9966C76.3946 43.7826 76.3556 43.5956 76.2776 43.4406C76.1996 43.2836 76.0906 43.1646 75.9526 43.0816C75.8136 42.9986 75.6506 42.9566 75.4636 42.9566C75.2766 42.9566 75.1126 42.9986 74.9716 43.0816C74.8326 43.1646 74.7236 43.2836 74.6466 43.4406C74.5706 43.5956 74.5326 43.7826 74.5326 43.9966C74.5326 44.2126 74.5706 44.3986 74.6466 44.5546C74.7236 44.7106 74.8326 44.8296 74.9716 44.9126C75.1126 44.9956 75.2766 45.0376 75.4636 45.0376C75.6506 45.0376 75.8136 44.9956 75.9526 44.9126Z" fill="#C5010A"/>
<path d="M79.427 44.4491L78.503 42.6341H78.016V45.3611H78.429V43.3501L79.267 44.9711H79.586L80.42 43.3461V45.3611H80.833V42.6341H80.347L79.427 44.4491Z" fill="#C5010A"/>
<path fill-rule="evenodd" clip-rule="evenodd" d="M83.0827 42.6338C83.2947 42.6338 83.4717 42.6688 83.6127 42.7398C83.7527 42.8128 83.8567 42.9088 83.9257 43.0328C83.9947 43.1558 84.0297 43.2958 84.0297 43.4518C84.0297 43.5998 83.9967 43.7348 83.9297 43.8588C83.8637 43.9828 83.7597 44.0808 83.6207 44.1528C83.4797 44.2258 83.2997 44.2628 83.0827 44.2628H82.5407V45.3608H82.1277V42.6338H83.0827ZM83.0627 43.9238C83.2577 43.9238 83.3977 43.8808 83.4817 43.7968C83.5657 43.7118 83.6087 43.5978 83.6087 43.4518C83.6087 43.3008 83.5657 43.1838 83.4817 43.0998C83.3977 43.0148 83.2577 42.9728 83.0627 42.9728H82.5407V43.9238H83.0627Z" fill="#C5010A"/>
<path fill-rule="evenodd" clip-rule="evenodd" d="M85.6928 42.6341L84.6878 45.3611H85.1238L85.3578 44.6951H86.4718L86.7058 45.3611H87.1428L86.1448 42.6341H85.6928ZM85.4748 44.3671L85.9148 43.1251L86.3558 44.3671H85.4748Z" fill="#C5010A"/>
<path d="M88.6772 42.6334L90.0452 44.6874V42.6334H90.4582V45.3614H90.0452L88.6772 43.3074V45.3614H88.2642V42.6334H88.6772Z" fill="#C5010A"/>
<path d="M92.6526 43.9501L92.0096 42.6341H91.5426L92.4466 44.3551V45.3611H92.8596V44.3551L93.7556 42.6341H93.2926L92.6526 43.9501Z" fill="#C5010A"/>
<path d="M97.2008 42.9686H96.3938V42.6336H98.4158V42.9686H97.6138V45.3616H97.2008V42.9686Z" fill="#C5010A"/>
<path fill-rule="evenodd" clip-rule="evenodd" d="M100.076 42.6341L99.0707 45.3611H99.5067L99.7407 44.6951H100.855L101.089 45.3611H101.526L100.528 42.6341H100.076ZM99.8577 44.3671L100.298 43.1251L100.739 44.3671H99.8577Z" fill="#C5010A"/>
<path d="M104.553 44.2001H103.813V43.8811H104.97V45.3611H104.592L104.557 44.9601C104.466 45.1021 104.352 45.2131 104.214 45.2911C104.077 45.3691 103.897 45.4081 103.676 45.4081C103.419 45.4081 103.195 45.3491 103.002 45.2321C102.81 45.1161 102.661 44.9521 102.554 44.7421C102.448 44.5311 102.395 44.2861 102.395 44.0051C102.395 43.7271 102.449 43.4811 102.558 43.2681C102.667 43.0551 102.823 42.8881 103.024 42.7671C103.225 42.6471 103.463 42.5871 103.739 42.5871C104.05 42.5871 104.31 42.6621 104.518 42.8121C104.726 42.9641 104.861 43.1711 104.923 43.4361H104.456C104.415 43.2911 104.333 43.1771 104.21 43.0941C104.088 43.0101 103.931 42.9691 103.739 42.9691C103.454 42.9691 103.229 43.0601 103.065 43.2451C102.901 43.4291 102.82 43.6841 102.82 44.0091C102.82 44.3341 102.9 44.5871 103.061 44.7681C103.222 44.9511 103.436 45.0421 103.704 45.0421C103.974 45.0421 104.177 44.9651 104.314 44.8111C104.45 44.6581 104.53 44.4551 104.553 44.2001Z" fill="#C5010A"/>
<path d="M106.626 42.6337H106.213V45.3617H107.865V45.0337H106.626V42.6337Z" fill="#C5010A"/>
</svg>
