<svg width="142" height="61" viewBox="0 0 142 61" fill="none" xmlns="http://www.w3.org/2000/svg">
<path fill-rule="evenodd" clip-rule="evenodd" d="M0 30.146C0 13.497 13.496 0 30.145 0C46.794 0 60.29 13.497 60.29 30.146C60.29 46.794 46.794 60.291 30.145 60.291C13.496 60.291 0 46.794 0 30.146ZM31.916 19.906C31.916 24.583 35.707 28.375 40.385 28.375C45.062 28.375 48.854 24.583 48.854 19.906C48.854 15.228 45.062 11.437 40.385 11.437C35.707 11.437 31.916 15.228 31.916 19.906Z" fill="#C5010A"/>
<path d="M72.7818 24.5426C71.6438 24.5426 70.6668 24.2986 69.8518 23.8096C69.0358 23.3216 68.4078 22.6396 67.9678 21.7646C67.5278 20.8906 67.3078 19.8786 67.3078 18.7296C67.3078 17.5816 67.5278 16.5666 67.9678 15.6866C68.4078 14.8066 69.0358 14.1196 69.8518 13.6256C70.6668 13.1326 71.6438 12.8856 72.7818 12.8856C74.1348 12.8856 75.2428 13.2206 76.1058 13.8916C76.9718 14.5626 77.5108 15.5046 77.7258 16.7176H75.4558C75.3148 16.1056 75.0188 15.6246 74.5608 15.2766C74.1048 14.9276 73.5008 14.7526 72.7498 14.7526C71.7088 14.7526 70.8928 15.1066 70.3028 15.8156C69.7118 16.5236 69.4168 17.4956 69.4168 18.7296C69.4168 19.9646 69.7118 20.9336 70.3028 21.6366C70.8928 22.3396 71.7088 22.6906 72.7498 22.6906C73.5008 22.6906 74.1048 22.5276 74.5608 22.1996C75.0188 21.8726 75.3148 21.4186 75.4558 20.8386H77.7258C77.5108 21.9986 76.9718 22.9056 76.1058 23.5596C75.2428 24.2146 74.1348 24.5426 72.7818 24.5426Z" fill="#C5010A"/>
<path fill-rule="evenodd" clip-rule="evenodd" d="M83.3293 24.5425C82.5553 24.5425 81.8613 24.3655 81.2443 24.0115C80.6253 23.6565 80.1373 23.1655 79.7783 22.5375C79.4183 21.9095 79.2393 21.1825 79.2393 20.3555C79.2393 19.5295 79.4213 18.8025 79.7863 18.1745C80.1513 17.5465 80.6423 17.0555 81.2593 16.7015C81.8763 16.3465 82.5723 16.1695 83.3443 16.1695C84.1073 16.1695 84.7963 16.3465 85.4143 16.7015C86.0313 17.0555 86.5193 17.5465 86.8783 18.1745C87.2383 18.8025 87.4183 19.5295 87.4183 20.3555C87.4183 21.1825 87.2383 21.9095 86.8783 22.5375C86.5193 23.1655 86.0283 23.6565 85.4063 24.0115C84.7833 24.3655 84.0903 24.5425 83.3293 24.5425ZM83.3443 17.9565C82.7973 17.9565 82.3283 18.1585 81.9363 18.5605C81.5433 18.9635 81.3483 19.5615 81.3483 20.3555C81.3483 21.1505 81.5433 21.7485 81.9363 22.1515C82.3283 22.5535 82.7913 22.7545 83.3293 22.7545C83.8653 22.7545 84.3323 22.5535 84.7293 22.1515C85.1263 21.7485 85.3253 21.1505 85.3253 20.3555C85.3253 19.5615 85.1263 18.9635 84.7293 18.5605C84.3323 18.1585 83.8713 17.9565 83.3443 17.9565Z" fill="#C5010A"/>
<path d="M99.1394 16.1699C98.5594 16.1699 98.0264 16.2979 97.5374 16.5559C97.0484 16.8139 96.6604 17.1629 96.3694 17.6029C95.8554 16.6479 94.9804 16.1699 93.7454 16.1699C93.1874 16.1699 92.6964 16.2849 92.2724 16.5159C91.8484 16.7469 91.5074 17.0549 91.2494 17.4419L91.0734 16.3629H89.2534V24.3489H91.3144V20.2269C91.3144 19.4979 91.4834 18.9289 91.8214 18.5209C92.1604 18.1129 92.6024 17.9089 93.1504 17.9089C93.7074 17.9089 94.1204 18.0909 94.3894 18.4559C94.6584 18.8209 94.7914 19.3469 94.7914 20.0339V24.3489H96.8534V20.2269C96.8534 19.4979 97.0224 18.9289 97.3604 18.5209C97.6984 18.1129 98.1464 17.9089 98.7044 17.9089C99.2514 17.9089 99.6574 18.0909 99.9204 18.4559C100.183 18.8209 100.315 19.3469 100.315 20.0339V24.3489H102.375V19.8409C102.375 18.6389 102.096 17.7259 101.538 17.1039C100.98 16.4819 100.18 16.1699 99.1394 16.1699Z" fill="#C5010A"/>
<path fill-rule="evenodd" clip-rule="evenodd" d="M111.086 16.7171C111.676 17.0821 112.143 17.5811 112.487 18.2141C112.83 18.8481 113.002 19.5671 113.002 20.3721C113.002 21.1771 112.83 21.8931 112.487 22.5211C112.143 23.1491 111.676 23.6431 111.086 24.0031C110.495 24.3621 109.825 24.5421 109.074 24.5421C108.472 24.5421 107.947 24.4301 107.495 24.2041C107.045 23.9791 106.68 23.6621 106.401 23.2541V27.8911H104.34V16.3631H106.175L106.401 17.5061C106.659 17.1521 106.999 16.8411 107.423 16.5721C107.847 16.3041 108.398 16.1701 109.074 16.1701C109.825 16.1701 110.495 16.3521 111.086 16.7171ZM108.639 22.7391C109.293 22.7391 109.835 22.5191 110.265 22.0791C110.695 21.6391 110.91 21.0701 110.91 20.3721C110.91 19.6741 110.695 19.1001 110.265 18.6491C109.835 18.1991 109.293 17.9731 108.639 17.9731C107.973 17.9731 107.428 18.1961 107.004 18.6411C106.58 19.0871 106.369 19.6581 106.369 20.3561C106.369 21.0541 106.58 21.6251 107.004 22.0711C107.428 22.5161 107.973 22.7391 108.639 22.7391Z" fill="#C5010A"/>
<path fill-rule="evenodd" clip-rule="evenodd" d="M118.075 19.6315C116.915 19.6315 116.045 19.8625 115.466 20.3235C114.886 20.7855 114.596 21.3865 114.596 22.1265C114.596 22.5675 114.704 22.9695 114.918 23.3345C115.133 23.6995 115.46 23.9925 115.901 24.2125C116.34 24.4325 116.905 24.5425 117.591 24.5425C118.256 24.5425 118.801 24.4025 119.226 24.1235C119.65 23.8445 119.98 23.4905 120.216 23.0605L120.409 24.3495H122.164V19.4385C122.164 18.3975 121.836 17.5925 121.182 17.0225C120.527 16.4545 119.63 16.1695 118.493 16.1695C117.828 16.1695 117.226 16.2855 116.69 16.5165C116.153 16.7475 115.715 17.0775 115.377 17.5065C115.039 17.9355 114.843 18.4395 114.789 19.0195H116.802C116.877 18.6335 117.071 18.3405 117.382 18.1425C117.693 17.9435 118.058 17.8445 118.477 17.8445C118.938 17.8445 119.325 17.9735 119.636 18.2305C119.948 18.4885 120.103 18.8905 120.103 19.4385V19.6315H118.075ZM119.435 22.3525C119.107 22.7385 118.649 22.9325 118.058 22.9325C117.671 22.9325 117.361 22.8465 117.124 22.6745C116.888 22.5025 116.77 22.2615 116.77 21.9505C116.77 21.6605 116.888 21.4155 117.124 21.2175C117.361 21.0195 117.752 20.9195 118.3 20.9195H120.055C119.969 21.4885 119.762 21.9665 119.435 22.3525Z" fill="#C5010A"/>
<path d="M131.954 19.8411V24.3491H129.892V20.0341C129.892 19.3471 129.753 18.8211 129.475 18.4561C129.195 18.0911 128.76 17.9091 128.17 17.9091C127.591 17.9091 127.115 18.1131 126.745 18.5201C126.375 18.9291 126.189 19.4971 126.189 20.2271V24.3491H124.129V16.3631H125.948L126.109 17.7151C126.355 17.2431 126.713 16.8681 127.18 16.5881C127.646 16.3091 128.196 16.1701 128.83 16.1701C129.817 16.1701 130.585 16.4811 131.133 17.1031C131.68 17.7261 131.954 18.6391 131.954 19.8411Z" fill="#C5010A"/>
<path d="M136.494 23.8179L134.642 27.8919H136.832L141.904 16.3629H139.714L137.38 21.9829L135.141 16.3629H132.903L136.011 23.8179H136.494Z" fill="#C5010A"/>
<path d="M67.0178 32.3994H75.6648V34.0574H72.3628V43.6704H70.3028V34.0574H67.0178V32.3994Z" fill="#C5010A"/>
<path fill-rule="evenodd" clip-rule="evenodd" d="M81.6704 36.0067C81.0694 35.6627 80.3764 35.4917 79.5934 35.4917C78.7554 35.4917 78.0294 35.6707 77.4124 36.0307C76.7934 36.3897 76.3114 36.8917 75.9624 37.5357C75.6134 38.1807 75.4394 38.9147 75.4394 39.7417C75.4394 40.5577 75.6164 41.2767 75.9704 41.8997C76.3254 42.5227 76.8134 43.0047 77.4354 43.3487C78.0584 43.6927 78.7724 43.8647 79.5774 43.8647C80.2214 43.8647 80.7974 43.7447 81.3084 43.5087C81.8184 43.2727 82.2464 42.9487 82.5964 42.5357C82.9454 42.1217 83.1944 41.6627 83.3444 41.1587H81.2514C81.1124 41.4597 80.9004 41.7037 80.6164 41.8917C80.3304 42.0787 79.9794 42.1727 79.5614 42.1727C79.0024 42.1727 78.5284 41.9947 78.1364 41.6417C77.7444 41.2877 77.5274 40.7997 77.4844 40.1767H83.5544C83.5644 40.0357 83.5734 39.9037 83.5784 39.7747C83.5834 39.6457 83.5864 39.5227 83.5864 39.4037C83.5864 38.6727 83.4164 38.0107 83.0784 37.4147C82.7414 36.8197 82.2714 36.3507 81.6704 36.0067ZM77.5164 38.8877C77.6234 38.3097 77.8704 37.8757 78.2564 37.5927C78.6434 37.3077 79.0884 37.1647 79.5934 37.1647C80.1194 37.1647 80.5594 37.3217 80.9134 37.6317C81.2674 37.9447 81.4604 38.3627 81.4934 38.8877H77.5164Z" fill="#C5010A"/>
<path d="M88.2553 38.5186L90.2683 35.6846H92.4903L89.5763 39.6766L92.4903 43.6706H90.2683L88.2553 40.8366L86.2273 43.6706H84.0213L86.9193 39.6766L84.0213 35.6846H86.2273L88.2553 38.5186Z" fill="#C5010A"/>
<path d="M96.6599 33.542H94.8409L94.5989 35.685H93.2299V37.407H94.5989V40.886C94.5989 41.927 94.8509 42.651 95.3549 43.058C95.8599 43.466 96.5309 43.671 97.3679 43.671H98.7689V41.915H97.7709C97.3629 41.915 97.0759 41.843 96.9099 41.698C96.7429 41.554 96.6599 41.288 96.6599 40.901V37.407H98.8169V35.685H96.6599V33.542Z" fill="#C5010A"/>
<path d="M104.468 32.3994H106.53V42.0594H111.521V43.6704H104.468V32.3994Z" fill="#C5010A"/>
<path fill-rule="evenodd" clip-rule="evenodd" d="M118.856 36.0227C118.238 35.6687 117.549 35.4917 116.786 35.4917C116.014 35.4917 115.318 35.6687 114.701 36.0227C114.084 36.3757 113.593 36.8677 113.228 37.4947C112.863 38.1237 112.681 38.8507 112.681 39.6767C112.681 40.5047 112.86 41.2317 113.22 41.8587C113.579 42.4877 114.067 42.9777 114.686 43.3327C115.303 43.6867 115.997 43.8647 116.771 43.8647C117.532 43.8647 118.225 43.6867 118.848 43.3327C119.47 42.9777 119.961 42.4877 120.32 41.8587C120.68 41.2317 120.86 40.5047 120.86 39.6767C120.86 38.8507 120.68 38.1237 120.32 37.4947C119.961 36.8677 119.473 36.3757 118.856 36.0227ZM118.171 41.4717C117.774 41.8757 117.307 42.0767 116.771 42.0767C116.234 42.0767 115.77 41.8757 115.378 41.4717C114.985 41.0697 114.79 40.4717 114.79 39.6767C114.79 38.8837 114.985 38.2837 115.378 37.8817C115.77 37.4797 116.239 37.2787 116.786 37.2787C117.313 37.2787 117.774 37.4797 118.171 37.8817C118.568 38.2837 118.767 38.8837 118.767 39.6767C118.767 40.4717 118.568 41.0697 118.171 41.4717Z" fill="#C5010A"/>
<path fill-rule="evenodd" clip-rule="evenodd" d="M123.822 35.8781C124.305 35.6201 124.89 35.4911 125.577 35.4911C126.028 35.4911 126.446 35.5561 126.833 35.6841H129.86V36.9401L128.491 37.0361C128.706 37.4441 128.813 37.8951 128.813 38.3901C128.813 38.9271 128.684 39.4151 128.427 39.8541C128.17 40.2941 127.797 40.6431 127.307 40.9011C126.819 41.1591 126.242 41.2881 125.577 41.2881C125.19 41.2881 124.831 41.2451 124.498 41.1591L123.902 41.7551C124.085 41.8511 124.332 41.9311 124.643 41.9951C124.954 42.0601 125.459 42.1241 126.157 42.1881C127.22 42.2861 127.992 42.5381 128.475 42.9461C128.958 43.3541 129.2 43.9171 129.2 44.6361C129.2 45.1081 129.071 45.5581 128.813 45.9811C128.555 46.4051 128.158 46.7491 127.622 47.0111C127.085 47.2741 126.398 47.4051 125.561 47.4051C124.423 47.4051 123.506 47.1941 122.807 46.7701C122.11 46.3471 121.762 45.7101 121.762 44.8621C121.762 44.1431 122.11 43.5201 122.807 42.9951C122.593 42.8971 122.408 42.7961 122.252 42.6881C122.096 42.5811 121.96 42.4681 121.842 42.3511V41.9791L123.242 40.4991C122.62 39.9501 122.308 39.2491 122.308 38.3901C122.308 37.8521 122.44 37.3641 122.703 36.9251C122.966 36.4831 123.339 36.1361 123.822 35.8781ZM125.577 39.7101C125.996 39.7101 126.342 39.5971 126.616 39.3721C126.889 39.1451 127.026 38.8231 127.026 38.4051C127.026 37.9871 126.889 37.6651 126.616 37.4381C126.342 37.2141 125.996 37.1011 125.577 37.1011C125.137 37.1011 124.783 37.2141 124.514 37.4381C124.246 37.6651 124.112 37.9871 124.112 38.4051C124.112 38.8231 124.246 39.1451 124.514 39.3721C124.783 39.5971 125.137 39.7101 125.577 39.7101ZM125.738 43.6061C125.298 43.5731 124.89 43.5261 124.514 43.4621C124.203 43.6341 123.98 43.8211 123.846 44.0241C123.712 44.2271 123.645 44.4381 123.645 44.6531C123.645 45.0501 123.83 45.3471 124.2 45.5461C124.571 45.7451 125.024 45.8451 125.561 45.8451C126.076 45.8451 126.495 45.7391 126.817 45.5301C127.138 45.3211 127.3 45.0381 127.3 44.6841C127.3 44.3951 127.195 44.1531 126.986 43.9601C126.776 43.7671 126.36 43.6491 125.738 43.6061Z" fill="#C5010A"/>
<path fill-rule="evenodd" clip-rule="evenodd" d="M136.953 36.0227C136.335 35.6687 135.646 35.4917 134.883 35.4917C134.111 35.4917 133.415 35.6687 132.798 36.0227C132.181 36.3757 131.69 36.8677 131.325 37.4947C130.96 38.1237 130.778 38.8507 130.778 39.6767C130.778 40.5047 130.957 41.2317 131.317 41.8587C131.676 42.4877 132.164 42.9777 132.783 43.3327C133.4 43.6867 134.094 43.8647 134.868 43.8647C135.629 43.8647 136.322 43.6867 136.945 43.3327C137.567 42.9777 138.058 42.4877 138.417 41.8587C138.777 41.2317 138.957 40.5047 138.957 39.6767C138.957 38.8507 138.777 38.1237 138.417 37.4947C138.058 36.8677 137.57 36.3757 136.953 36.0227ZM136.268 41.4717C135.871 41.8757 135.404 42.0767 134.868 42.0767C134.331 42.0767 133.867 41.8757 133.475 41.4717C133.082 41.0697 132.887 40.4717 132.887 39.6767C132.887 38.8837 133.082 38.2837 133.475 37.8817C133.867 37.4797 134.336 37.2787 134.883 37.2787C135.41 37.2787 135.871 37.4797 136.268 37.8817C136.665 38.2837 136.864 38.8837 136.864 39.6767C136.864 40.4717 136.665 41.0697 136.268 41.4717Z" fill="#C5010A"/>
</svg>
