<svg width="126" height="40" viewBox="0 0 126 40" fill="none" xmlns="http://www.w3.org/2000/svg">
<path fill-rule="evenodd" clip-rule="evenodd" d="M49.203 0L37.879 19.612L49.203 39.223H71.847L83.171 19.612L71.847 0H49.203ZM50.235 19.612L55.381 10.7H65.669L70.815 19.612L65.669 28.523H55.381L50.235 19.612Z" fill="#C5010A"/>
<path d="M0 11.4408V13.6438H2.708V27.7828H5.05V13.6438H7.759V11.4408H0Z" fill="#C5010A"/>
<path d="M16 27.7833H9.021V11.4403H16V13.6433H11.363V18.4413H15.402V20.6443H11.363V25.4423H16V27.7833Z" fill="#C5010A"/>
<path d="M25.3647 11.4406H22.8847L21.0947 16.2836L19.3277 11.4406H16.8487L19.9017 19.2216L16.5947 27.7836H19.0757L21.0947 22.2746L23.1377 27.7836H25.6167L22.2417 19.2216L25.3647 11.4406Z" fill="#C5010A"/>
<path d="M28.439 13.6437H25.73V11.4407H33.49V13.6437H30.781V27.7837H28.439V13.6437Z" fill="#C5010A"/>
<path d="M90.9409 11.4406H88.5989V27.7836H95.5779V25.4426H90.9409V11.4406Z" fill="#C5010A"/>
<path d="M112.529 11.5552C112.995 11.7242 113.419 11.9682 113.802 12.2892C114.169 12.6262 114.468 13.0472 114.697 13.5522C114.927 14.0572 115.042 14.6392 115.042 15.2962V16.1232H112.7V15.2962C112.7 14.7302 112.544 14.3132 112.23 14.0452C111.915 13.7772 111.544 13.6432 111.116 13.6432C110.689 13.6432 110.318 13.7772 110.003 14.0452C109.689 14.3132 109.532 14.7302 109.532 15.2962V23.9272C109.532 24.4932 109.689 24.9102 110.003 25.1782C110.318 25.4462 110.689 25.5802 111.116 25.5802C111.544 25.5802 111.915 25.4462 112.23 25.1782C112.544 24.9102 112.7 24.4932 112.7 23.9272V20.8522H110.841V18.7852H115.042V23.9272C115.042 24.6152 114.927 25.2052 114.697 25.6942C114.468 26.1852 114.169 26.5902 113.802 26.9112C113.419 27.2482 112.995 27.5002 112.529 27.6682C112.062 27.8372 111.591 27.9212 111.116 27.9212C110.642 27.9212 110.171 27.8372 109.704 27.6682C109.238 27.5002 108.822 27.2482 108.454 26.9112C108.072 26.5902 107.765 26.1852 107.536 25.6942C107.306 25.2052 107.191 24.6152 107.191 23.9272V15.2962C107.191 14.6392 107.306 14.0572 107.536 13.5522C107.765 13.0472 108.072 12.6262 108.454 12.2892C108.822 11.9682 109.238 11.7242 109.704 11.5552C110.171 11.3872 110.642 11.3032 111.116 11.3032C111.591 11.3032 112.062 11.3872 112.529 11.5552Z" fill="#C5010A"/>
<path fill-rule="evenodd" clip-rule="evenodd" d="M103.795 12.2889C103.412 11.9679 102.988 11.7239 102.521 11.5549C102.054 11.3869 101.584 11.3029 101.109 11.3029C100.634 11.3029 100.164 11.3869 99.6969 11.5549C99.2299 11.7239 98.8139 11.9679 98.4469 12.2889C98.0639 12.6259 97.7569 13.0469 97.5289 13.5519C97.2979 14.0569 97.1829 14.6389 97.1829 15.2959V23.9269C97.1829 24.6149 97.2979 25.2049 97.5289 25.6949C97.7569 26.1849 98.0639 26.5899 98.4469 26.9109C98.8139 27.2479 99.2299 27.4999 99.6969 27.6679C100.164 27.8369 100.634 27.9209 101.109 27.9209C101.584 27.9209 102.054 27.8369 102.521 27.6679C102.988 27.4999 103.412 27.2479 103.795 26.9109C104.162 26.5899 104.461 26.1849 104.689 25.6949C104.92 25.2049 105.035 24.6149 105.035 23.9269V15.2959C105.035 14.6389 104.92 14.0569 104.689 13.5519C104.461 13.0469 104.162 12.6259 103.795 12.2889ZM102.693 23.9269C102.693 24.4929 102.537 24.9099 102.222 25.1779C101.908 25.4469 101.537 25.5799 101.109 25.5799C100.681 25.5799 100.31 25.4469 99.9959 25.1779C99.6809 24.9099 99.5249 24.4929 99.5249 23.9269V15.2959C99.5249 14.7309 99.6809 14.3139 99.9959 14.0449C100.31 13.7779 100.681 13.6439 101.109 13.6439C101.537 13.6439 101.908 13.7779 102.222 14.0449C102.537 14.3139 102.693 14.7309 102.693 15.2959V23.9269Z" fill="#C5010A"/>
<path fill-rule="evenodd" clip-rule="evenodd" d="M123.811 12.2889C124.177 12.6259 124.477 13.0469 124.704 13.5519C124.936 14.0569 125.05 14.6389 125.05 15.2959V23.9269C125.05 24.6149 124.936 25.2049 124.704 25.6949C124.477 26.1849 124.177 26.5899 123.811 26.9109C123.427 27.2479 123.004 27.4999 122.536 27.6679C122.07 27.8369 121.6 27.9209 121.125 27.9209C120.649 27.9209 120.18 27.8369 119.713 27.6679C119.245 27.4999 118.829 27.2479 118.463 26.9109C118.079 26.5899 117.772 26.1849 117.545 25.6949C117.313 25.2049 117.199 24.6149 117.199 23.9269V15.2959C117.199 14.6389 117.313 14.0569 117.545 13.5519C117.772 13.0469 118.079 12.6259 118.463 12.2889C118.829 11.9679 119.245 11.7239 119.713 11.5549C120.18 11.3869 120.649 11.3029 121.125 11.3029C121.6 11.3029 122.07 11.3869 122.536 11.5549C123.004 11.7239 123.427 11.9679 123.811 12.2889ZM122.238 25.1779C122.552 24.9099 122.709 24.4929 122.709 23.9269V15.2959C122.709 14.7309 122.552 14.3139 122.238 14.0449C121.924 13.7779 121.552 13.6439 121.125 13.6439C120.697 13.6439 120.326 13.7779 120.012 14.0449C119.697 14.3139 119.541 14.7309 119.541 15.2959V23.9269C119.541 24.4929 119.697 24.9099 120.012 25.1779C120.326 25.4469 120.697 25.5799 121.125 25.5799C121.552 25.5799 121.924 25.4469 122.238 25.1779Z" fill="#C5010A"/>
</svg>
