<svg width="89" height="61" viewBox="0 0 89 61" fill="none" xmlns="http://www.w3.org/2000/svg">
<path d="M32.165 0V16.657L15.508 0V43.443H75.608L32.165 0Z" fill="#C5010A"/>
<path d="M20.1483 53.4815C20.7083 53.4815 21.1583 53.6125 21.4983 53.8725C21.8383 54.1315 22.0603 54.4905 22.1643 54.9455H23.8563C23.6963 54.0425 23.2943 53.3395 22.6503 52.8395C22.0063 52.3395 21.1803 52.0895 20.1723 52.0895C19.3243 52.0895 18.5963 52.2735 17.9883 52.6415C17.3803 53.0095 16.9123 53.5215 16.5843 54.1775C16.2563 54.8345 16.0923 55.5895 16.0923 56.4455C16.0923 57.3015 16.2563 58.0555 16.5843 58.7085C16.9123 59.3605 17.3803 59.8685 17.9883 60.2315C18.5963 60.5955 19.3243 60.7775 20.1723 60.7775C21.1803 60.7775 22.0063 60.5345 22.6503 60.0455C23.2943 59.5575 23.6963 58.8815 23.8563 58.0175H22.1643C22.0603 58.4505 21.8383 58.7885 21.4983 59.0325C21.1583 59.2765 20.7083 59.3975 20.1483 59.3975C19.3723 59.3975 18.7643 59.1355 18.3243 58.6115C17.8843 58.0875 17.6643 57.3665 17.6643 56.4455C17.6643 55.5265 17.8843 54.8015 18.3243 54.2735C18.7643 53.7465 19.3723 53.4815 20.1483 53.4815Z" fill="#C5010A"/>
<path fill-rule="evenodd" clip-rule="evenodd" d="M33.6242 52.6415C32.9922 52.2735 32.2602 52.0895 31.4282 52.0895C30.5882 52.0895 29.8542 52.2735 29.2262 52.6415C28.5982 53.0095 28.1062 53.5195 27.7502 54.1715C27.3942 54.8245 27.2162 55.5785 27.2162 56.4335C27.2162 57.2905 27.3942 58.0435 27.7502 58.6955C28.1062 59.3475 28.5982 59.8585 29.2262 60.2255C29.8542 60.5935 30.5882 60.7775 31.4282 60.7775C32.2602 60.7775 32.9922 60.5935 33.6242 60.2255C34.2562 59.8585 34.7482 59.3475 35.1002 58.6955C35.4522 58.0435 35.6282 57.2905 35.6282 56.4335C35.6282 55.5785 35.4522 54.8245 35.1002 54.1715C34.7482 53.5195 34.2562 53.0095 33.6242 52.6415ZM33.3422 58.6055C32.8662 59.1335 32.2282 59.3975 31.4282 59.3975C30.6282 59.3975 29.9882 59.1335 29.5082 58.6055C29.0282 58.0785 28.7882 57.3535 28.7882 56.4335C28.7882 55.5135 29.0282 54.7905 29.5082 54.2615C29.9882 53.7335 30.6282 53.4695 31.4282 53.4695C32.2282 53.4695 32.8662 53.7335 33.3422 54.2615C33.8182 54.7905 34.0562 55.5135 34.0562 56.4335C34.0562 57.3535 33.8182 58.0785 33.3422 58.6055Z" fill="#C5010A"/>
<path d="M41.0876 52.2335L43.7646 57.5615L46.4036 52.2335H48.2276V60.6335H46.6916V54.8375L44.3526 59.4335H43.1406L40.7996 54.8375V60.6335H39.2646V52.2335H41.0876Z" fill="#C5010A"/>
<path fill-rule="evenodd" clip-rule="evenodd" d="M56.915 52.5693C56.476 52.3453 55.919 52.2333 55.248 52.2333H52.14V60.6343H53.675V57.3823H55.248C55.936 57.3823 56.499 57.2633 56.94 57.0273C57.379 56.7923 57.704 56.4793 57.912 56.0923C58.12 55.7043 58.224 55.2783 58.224 54.8133C58.224 54.3263 58.116 53.8853 57.9 53.4943C57.684 53.1013 57.356 52.7943 56.915 52.5693ZM56.31 55.7803C56.074 56.0153 55.688 56.1343 55.152 56.1343H53.675V53.4813H55.152C55.688 53.4813 56.074 53.5993 56.31 53.8363C56.545 54.0723 56.664 54.3973 56.664 54.8133C56.664 55.2213 56.545 55.5443 56.31 55.7803Z" fill="#C5010A"/>
<path fill-rule="evenodd" clip-rule="evenodd" d="M60.264 60.6343L63.335 52.2333H65.064L68.136 60.6343H66.503L65.831 58.6893H62.556L61.872 60.6343H60.264ZM64.188 53.9983L62.976 57.4903H65.412L64.188 53.9983Z" fill="#C5010A"/>
<path d="M76.9789 58.1494L73.0309 52.2334H71.4959V60.6334H73.0309V54.7294L76.9789 60.6334H78.5149V52.2334H76.9789V58.1494Z" fill="#C5010A"/>
<path d="M85.3789 56.1094L87.2279 52.2334H88.9439L86.1359 57.6454V60.6334H84.5999V57.6454L81.7799 52.2334H83.5199L85.3789 56.1094Z" fill="#C5010A"/>
<path fill-rule="evenodd" clip-rule="evenodd" d="M0 60.6346L3.073 52.2336H4.801L7.873 60.6346H6.241L5.569 58.6896H2.293L1.609 60.6346H0ZM5.148 57.4906L3.924 53.9986L2.712 57.4906H5.148Z" fill="#C5010A"/>
</svg>
