<svg width="203" height="60" viewBox="0 0 203 60" fill="none" xmlns="http://www.w3.org/2000/svg">
<path d="M195 0H8C3.58172 0 0 3.58172 0 8V52C0 56.4183 3.58172 60 8 60H195C199.418 60 203 56.4183 203 52V8C203 3.58172 199.418 0 195 0Z" fill="white" stroke="#CFCFCF"/>
<mask id="mask0_3338_246" style="mask-type:alpha" maskUnits="userSpaceOnUse" x="0" y="0" width="203" height="60">
<path d="M0 60H202.5V0H0V60Z" fill="white"/>
</mask>
<g mask="url(#mask0_3338_246)">
<path fill-rule="evenodd" clip-rule="evenodd" d="M86.9881 31.1841C88.5001 31.1841 89.7481 31.7841 90.7561 32.9721C91.7881 34.1721 92.2921 35.7321 92.2921 37.6881C92.2921 39.8601 91.7041 41.5761 90.5161 42.8361C89.4601 43.9641 88.1401 44.5161 86.5801 44.5161C84.8881 44.5161 83.6761 43.9161 82.9321 42.7041V49.4121H80.0881V35.6481C80.0881 34.2801 80.0521 32.8881 79.9801 31.4481H82.4761L82.6321 33.4761H82.6801C83.6281 31.9521 85.0681 31.1841 86.9881 31.1841ZM72.3 31.1841C73.812 31.1841 75.06 31.7841 76.068 32.9721C77.1 34.1721 77.604 35.7321 77.604 37.6881C77.604 39.8601 77.016 41.5761 75.828 42.8361C74.772 43.9641 73.452 44.5161 71.892 44.5161C70.2 44.5161 68.988 43.9161 68.244 42.7041V49.4121H65.4V35.6481C65.4 34.2801 65.364 32.8881 65.292 31.4481H67.788L67.944 33.4761H67.992C68.94 31.9521 70.38 31.1841 72.3 31.1841ZM126.072 31.196C127.944 31.196 129.456 31.82 130.596 33.068C131.688 34.268 132.228 35.828 132.228 37.736C132.228 39.704 131.664 41.312 130.548 42.572C129.372 43.868 127.812 44.516 125.868 44.516C123.996 44.516 122.496 43.892 121.38 42.656C120.264 41.42 119.712 39.848 119.712 37.952C119.712 35.972 120.288 34.352 121.428 33.092C122.58 31.832 124.128 31.196 126.072 31.196ZM104.052 26.2521C105.66 26.2521 107.004 26.5281 108.072 27.0921L107.352 29.3961C106.344 28.8561 105.216 28.5801 103.944 28.5801C102.948 28.5801 102.156 28.8321 101.592 29.3121C101.124 29.7561 100.884 30.2841 100.884 30.9201C100.884 31.6161 101.16 32.2041 101.7 32.6481C102.168 33.0681 103.032 33.5241 104.28 34.0161C105.804 34.6281 106.92 35.3481 107.64 36.1761C108.372 37.0041 108.732 38.0361 108.732 39.2601C108.732 40.7721 108.204 41.9961 107.16 42.9441C106.008 43.9761 104.4 44.4921 102.336 44.4921C100.428 44.4921 98.9041 44.1201 97.7521 43.3881L98.4121 41.0241C99.6601 41.7561 101.028 42.1281 102.516 42.1281C103.584 42.1281 104.424 41.8881 105.012 41.4081C105.612 40.9281 105.912 40.2801 105.912 39.4761C105.912 38.7561 105.66 38.1561 105.18 37.6641C104.688 37.1721 103.872 36.7161 102.732 36.2961C99.6001 35.1321 98.0521 33.4401 98.0521 31.2201C98.0521 29.7681 98.6041 28.5801 99.6961 27.6441C100.788 26.7201 102.24 26.2521 104.052 26.2521ZM115.008 28.2681V31.4481H118.14V33.5841H115.008V39.7881C115.008 41.3601 115.56 42.1521 116.664 42.1521C117.168 42.1521 117.588 42.1041 117.924 42.0201L118.008 44.1801C117.444 44.3841 116.712 44.4921 115.8 44.4921C114.672 44.4921 113.808 44.1441 113.172 43.4601C112.536 42.7761 112.224 41.6241 112.224 40.0161V33.5721H110.364V31.4481H112.224V29.1081L115.008 28.2681ZM148.848 31.148C150.684 31.148 152.088 31.832 153.024 33.2C153.78 34.304 154.164 35.636 154.164 37.232C154.164 37.736 154.128 38.168 154.056 38.516H145.536C145.572 39.776 145.98 40.748 146.772 41.408C147.492 41.996 148.416 42.296 149.556 42.296C150.816 42.296 151.968 42.092 153 41.696L153.444 43.664C152.232 44.192 150.804 44.456 149.16 44.456C147.18 44.456 145.62 43.868 144.492 42.704C143.364 41.54 142.8 39.968 142.8 38.012C142.8 36.092 143.328 34.484 144.384 33.2C145.488 31.832 146.976 31.148 148.848 31.148ZM140.748 31.184C141.012 31.184 141.252 31.208 141.456 31.232L141.468 33.944C141.192 33.896 140.892 33.872 140.568 33.872C139.572 33.872 138.792 34.244 138.252 35C137.784 35.66 137.544 36.512 137.544 37.52V44.228H134.7V35.468C134.7 33.992 134.676 32.648 134.616 31.448H137.088L137.196 33.896H137.28C137.58 33.056 138.048 32.372 138.696 31.868C139.332 31.412 140.016 31.184 140.748 31.184ZM57.228 26.5041L62.952 44.2281H59.928L58.272 39.0201H52.512L50.94 44.2281H48L53.7 26.5041H57.228ZM125.976 33.26C124.836 33.26 123.96 33.764 123.372 34.784C122.856 35.624 122.616 36.644 122.616 37.856C122.616 39.032 122.868 40.04 123.372 40.868C123.984 41.888 124.848 42.392 125.952 42.392C127.032 42.392 127.884 41.876 128.508 40.844C129.024 39.98 129.288 38.972 129.288 37.796C129.288 36.62 129.036 35.624 128.532 34.784C127.932 33.764 127.08 33.26 125.976 33.26ZM86.0881 33.4521C85.3921 33.4521 84.7561 33.6921 84.1801 34.1481C83.6161 34.6161 83.2441 35.2161 83.0641 35.9721C82.9801 36.3201 82.9321 36.6081 82.9321 36.8361V38.9721C82.9321 39.8961 83.2201 40.6881 83.7841 41.3241C84.3481 41.9601 85.0921 42.2841 86.0041 42.2841C87.0721 42.2841 87.9121 41.8641 88.5001 41.0481C89.1121 40.2201 89.4001 39.1401 89.4001 37.7841C89.4001 36.5361 89.1241 35.5161 88.5601 34.7121C87.9481 33.8721 87.1201 33.4521 86.0881 33.4521ZM71.4 33.4521C70.704 33.4521 70.068 33.6921 69.492 34.1481C68.928 34.6161 68.544 35.2161 68.376 35.9721C68.292 36.3201 68.244 36.6081 68.244 36.8361V38.9721C68.244 39.8961 68.532 40.6881 69.096 41.3241C69.66 41.9601 70.404 42.2841 71.316 42.2841C72.384 42.2841 73.212 41.8641 73.812 41.0481C74.412 40.2201 74.712 39.1401 74.712 37.7841C74.712 36.5361 74.436 35.5161 73.872 34.7121C73.26 33.8721 72.432 33.4521 71.4 33.4521ZM55.392 28.8801H55.332C55.152 29.6361 54.876 30.7521 54.492 32.2161L53.016 36.8361H57.78L56.28 32.2161C56.124 31.7361 55.824 30.6321 55.392 28.8801ZM148.644 33.128C147.72 33.128 146.964 33.512 146.388 34.28C145.92 34.892 145.632 35.636 145.548 36.488L151.452 36.5C151.476 35.66 151.284 34.928 150.9 34.316C150.408 33.524 149.652 33.128 148.644 33.128ZM112.5 13.7601C114.312 13.7601 115.524 15.0681 115.524 16.9761C115.524 18.9321 114.276 20.3121 112.392 20.3121C110.556 20.3121 109.368 18.9441 109.368 17.0841C109.368 15.1401 110.58 13.7601 112.5 13.7601ZM88.2841 11V14.804H88.3081C88.7281 14.108 89.3881 13.76 90.3121 13.76C91.8241 13.76 92.8801 15.056 92.8801 16.94C92.8801 18.884 91.7041 20.312 90.1081 20.312C89.2201 20.312 88.5601 19.94 88.1281 19.196H88.1041L88.0201 20.168H86.8321C86.8681 19.664 86.8801 19.1 86.8801 18.476V11H88.2841ZM67.176 13.7721C68.82 13.7721 69.648 14.6361 69.648 16.3761V18.6921C69.648 19.3281 69.672 19.8201 69.744 20.1921L68.484 20.1681L68.376 19.4481H68.34C67.908 20.0241 67.296 20.3121 66.504 20.3121C65.376 20.3121 64.584 19.5201 64.584 18.4641C64.584 16.9161 65.928 16.1121 68.256 16.1121V15.9921C68.256 15.1641 67.812 14.7561 66.948 14.7561C66.324 14.7561 65.784 14.9121 65.304 15.2241L65.016 14.3121C65.592 13.9521 66.324 13.7721 67.176 13.7721ZM81.9721 13.7601C83.6161 13.7601 84.4441 14.6241 84.4441 16.3641V18.6801C84.4441 19.3161 84.4681 19.8081 84.5281 20.1801H83.2801V20.1681L83.1721 19.4481H83.1361C82.7041 20.0241 82.0921 20.3121 81.3001 20.3121C80.1721 20.3121 79.3801 19.5201 79.3801 18.4641C79.3801 16.9161 80.7241 16.1121 83.0521 16.1121V15.9921C83.0521 15.1641 82.6081 14.7561 81.7441 14.7561C81.1201 14.7561 80.5801 14.9121 80.1001 15.2241L79.8121 14.3001C80.3881 13.9401 81.1201 13.7601 81.9721 13.7601ZM130.632 12.3201V13.8801H132.168V14.9361H130.62V17.9841C130.62 18.7641 130.896 19.1481 131.436 19.1481C131.676 19.1481 131.892 19.1241 132.06 19.0881L132.096 20.1441C131.82 20.2521 131.46 20.3001 131.016 20.3001C129.912 20.3001 129.264 19.6881 129.264 18.1041V14.9361H128.352V13.8921H129.264V12.7401L130.632 12.3201ZM144.12 13.736C145.716 13.736 146.736 14.924 146.736 16.724C146.736 16.976 146.724 17.192 146.676 17.36H142.488C142.512 18.548 143.304 19.22 144.468 19.22C145.092 19.22 145.656 19.112 146.16 18.92L146.376 19.892C145.788 20.156 145.092 20.276 144.276 20.276C142.308 20.276 141.144 19.04 141.144 17.108C141.144 15.188 142.332 13.736 144.12 13.736ZM101.376 13.736C102.972 13.736 103.992 14.924 103.992 16.724C103.992 16.976 103.98 17.192 103.932 17.36H99.744C99.768 18.548 100.56 19.22 101.724 19.22C102.348 19.22 102.912 19.112 103.416 18.92L103.632 19.892C103.044 20.156 102.348 20.276 101.532 20.276C99.564 20.276 98.4 19.04 98.4 17.108C98.4 15.188 99.588 13.736 101.376 13.736ZM135.492 11.0001V14.7681H135.516C135.96 14.0841 136.584 13.7481 137.4 13.7481C138.732 13.7481 139.548 14.7801 139.548 16.4241V20.1681H138.156V16.5801C138.156 15.4521 137.724 14.8881 136.884 14.8881C136.164 14.8881 135.492 15.3801 135.492 16.3761V20.1561H134.1V11.0001H135.492ZM120.84 13.7481C122.16 13.7481 123.024 14.7561 123.024 16.4001V20.1681H121.632V16.5561C121.632 15.4401 121.2 14.8881 120.36 14.8881C119.532 14.8881 118.968 15.5961 118.968 16.4241V20.1561H117.576V15.6801C117.576 15.1281 117.564 14.5281 117.528 13.8801H118.752L118.812 14.8521H118.848C119.22 14.1801 119.988 13.7481 120.84 13.7481ZM58.8841 13.8801L59.9521 17.2041C60.1321 17.7561 60.2881 18.2841 60.4081 18.7881H60.4441C60.5521 18.3321 60.7081 17.8041 60.9001 17.2041L61.9561 13.8801H63.4201L61.0441 20.1681H59.6881L57.3841 13.8801H58.8841ZM53.5801 11.456L56.4121 20.168H54.9241L54.1081 17.612H51.2761L50.4961 20.168H49.0561L51.8521 11.456H53.5801ZM96.3361 11.0001V20.1561H94.9441V11.0001H96.3361ZM77.3521 11.0001V20.1561H75.9601V11.0001H77.3521ZM73.4761 13.8801V20.1561H72.0841V13.8801H73.4761ZM83.0881 17.0361C81.5401 17.0361 80.7601 17.4081 80.7601 18.3081C80.7601 18.9681 81.1561 19.2921 81.7201 19.2921C82.4281 19.2921 83.0881 18.7521 83.0881 18.0081V17.0361ZM68.292 17.0361C66.744 17.0361 65.964 17.4081 65.964 18.3081C65.964 18.9681 66.36 19.2921 66.924 19.2921C67.632 19.2921 68.292 18.7521 68.292 18.0081V17.0361ZM112.452 14.7801C111.444 14.7801 110.796 15.7281 110.796 17.0361C110.796 18.3321 111.456 19.2681 112.44 19.2681C113.424 19.2681 114.084 18.2601 114.084 17.0001C114.072 15.7281 113.436 14.7801 112.452 14.7801ZM89.8201 14.852C89.0161 14.852 88.2841 15.548 88.2841 16.52V17.624C88.2841 18.488 88.9441 19.196 89.7961 19.196C90.8401 19.196 91.4641 18.344 91.4641 16.988C91.4641 15.716 90.8161 14.852 89.8201 14.852ZM52.6801 12.608H52.6561C52.5601 12.98 52.4401 13.52 52.2361 14.252L51.5161 16.532H53.8561L53.1241 14.252C53.0521 14.024 52.9081 13.472 52.6801 12.608ZM144.024 14.708C143.22 14.708 142.584 15.404 142.5 16.364H145.404C145.404 15.392 144.912 14.708 144.024 14.708ZM101.28 14.708C100.476 14.708 99.852 15.404 99.756 16.364H102.66C102.66 15.392 102.168 14.708 101.28 14.708ZM72.7801 11.1801C73.2601 11.1801 73.6441 11.5281 73.6321 12.0081C73.6321 12.5121 73.2721 12.8481 72.7561 12.8481C72.2881 12.8481 71.9281 12.4881 71.9281 12.0081C71.9281 11.5281 72.3001 11.1801 72.7801 11.1801Z" fill="black"/>
</g>
</svg>
