<svg width="203" height="60" viewBox="0 0 203 60" fill="none" xmlns="http://www.w3.org/2000/svg">
<mask id="mask0_3338_756" style="mask-type:alpha" maskUnits="userSpaceOnUse" x="0" y="0" width="203" height="60">
<path fill-rule="evenodd" clip-rule="evenodd" d="M0 0H202.5V59.9999H0V0Z" fill="white"/>
</mask>
<g mask="url(#mask0_3338_756)">
<path fill-rule="evenodd" clip-rule="evenodd" d="M195 60H7.5C3.3 60 0 56.7 0 52.5V7.5C0 3.3 3.3 0 7.5 0H195C199.2 0 202.5 3.3 202.5 7.5V52.5C202.5 56.7 199.2 60 195 60Z" fill="black"/>
</g>
<mask id="mask1_3338_756" style="mask-type:alpha" maskUnits="userSpaceOnUse" x="0" y="0" width="203" height="60">
<path fill-rule="evenodd" clip-rule="evenodd" d="M0 60H202.5V0H0V60Z" fill="white"/>
</mask>
<g mask="url(#mask1_3338_756)">
<path fill-rule="evenodd" clip-rule="evenodd" d="M39.7809 11.3308C40.686 10.4257 41.7429 9.9729 43.1 9.9729C43.7047 9.9729 44.3088 10.1241 44.9121 10.4258C45.5132 10.7263 45.9685 11.0289 46.2725 11.4849L46.2847 11.5033L46.2691 11.519L45.5191 12.269L45.4978 12.2903L45.4789 12.2668C44.8851 11.5245 44.1436 11.2269 43.1 11.2269C42.2057 11.2269 41.3146 11.5249 40.7211 12.2668L40.7173 12.2715L40.7169 12.271C39.9754 12.8641 39.677 13.7549 39.677 14.7999C39.677 15.8449 39.9754 16.7357 40.7169 17.3288C41.4657 17.9279 42.2096 18.3729 43.1 18.3729C43.6224 18.3729 44.0687 18.2983 44.4773 18.1312C44.8858 17.964 45.2579 17.7038 45.6309 17.3308C46.071 16.8907 46.3658 16.3064 46.3729 15.5769H43.1H43.073V15.5499V14.3499V14.3229H43.1H47.45H47.477V14.3499V14.9499C47.477 16.1541 47.1759 17.2121 46.4191 17.969C45.514 18.8741 44.4571 19.3269 43.1 19.3269C41.7429 19.3269 40.686 18.8741 39.7809 17.969C38.8758 17.0639 38.423 16.007 38.423 14.6499C38.423 13.2928 38.8758 12.2359 39.7809 11.3308ZM80.1309 11.3308C81.036 10.4257 82.0929 9.9729 83.45 9.9729C84.8071 9.9729 85.864 10.4257 86.7691 11.3308C87.6742 12.2359 88.127 13.2928 88.127 14.6499C88.127 16.007 87.6742 17.0639 86.7691 17.969C85.864 18.8741 84.8071 19.3269 83.45 19.3269C82.0929 19.3269 81.036 18.8741 80.1309 17.969C79.2258 17.0639 78.773 16.007 78.773 14.6499C78.773 13.2928 79.2258 12.2359 80.1309 11.3308ZM49.073 10.1229H49.1H54.35H54.377V10.1499V11.1999V11.2269H54.35H50.327V14.0229H54.05H54.077V14.0499V15.0999V15.1269H54.05H50.327V17.9229H54.35H54.377V17.9499V19.1499V19.1769H54.35H49.1H49.073V19.1499V10.1499V10.1229ZM55.523 10.1229H55.55H61.85H61.877V10.1499V11.1999V11.2269H61.85H59.327V19.1499V19.1769H59.3H58.1H58.073V19.1499V11.2269H55.55H55.523V11.1999V10.1499V10.1229ZM66.173 10.1229H66.2H67.4H67.427V10.1499V19.1499V19.1769H67.4H66.2H66.173V19.1499V10.1499V10.1229ZM68.723 10.1229H68.75H74.9H74.927V10.1499V11.1999V11.2269H74.9H72.377V19.1229H72.5V19.1499V19.1769H72.35H72.323H71.3H71.273V19.1499V11.2269H68.75H68.723V11.1999V10.1499V10.1229ZM89.723 10.1229H89.75H91.1H91.1151L91.123 10.1357L95.423 17.1047V10.1499V10.1229H95.45H96.65H96.677V10.1499V19.1499V19.1769H96.65H95.45H95.4351L95.4272 19.1643L90.827 11.8931V19.1499V19.1769H90.8H89.75H89.723V19.1499V10.1499V10.1229ZM83.45 11.0769C82.5557 11.0769 81.6646 11.3749 81.0711 12.1168L81.0692 12.1191L81.0691 12.119C80.4737 12.7144 80.027 13.6077 80.027 14.6499C80.027 15.6949 80.3254 16.5857 81.0669 17.1788L81.0692 17.1807L81.0691 17.1808C81.665 17.7767 82.5584 18.2229 83.45 18.2229C84.3443 18.2229 85.2354 17.9249 85.8289 17.183L85.8308 17.1807L85.8309 17.1808C86.4263 16.5854 86.873 15.6921 86.873 14.6499C86.873 13.6049 86.5746 12.7141 85.8331 12.121L85.8308 12.1191L85.8309 12.119C85.235 11.5231 84.3416 11.0769 83.45 11.0769ZM136.7 44.6498H139.55V25.8998H136.7V44.6498ZM161.9 32.6498L158.75 40.7498H158.6L155.3 32.6498H152.3L157.25 44.0498L154.4 50.3498H157.25L164.9 32.6498H161.9ZM146.15 42.5498C145.25 42.5498 143.9 42.0998 143.9 40.8998C143.9 39.3998 145.55 38.9498 146.9 38.9498C147.979 38.9498 148.573 39.1923 149.227 39.4592C149.3 39.4892 149.374 39.5195 149.45 39.5498C149.15 41.3498 147.65 42.5498 146.15 42.5498ZM146.45 32.1998C144.35 32.1998 142.25 33.0998 141.5 35.0498L144.05 36.0998C144.65 35.0498 145.55 34.7498 146.6 34.7498C148.1 34.7498 149.45 35.6498 149.6 37.1498V37.2998C149.15 36.9998 147.95 36.5498 146.75 36.5498C144.05 36.5498 141.35 38.0498 141.35 40.7498C141.35 43.2998 143.6 44.9498 146 44.9498C147.95 44.9498 148.85 44.0498 149.6 43.1498H149.75V44.6498H152.45V37.4498C152.15 34.1498 149.6 32.1998 146.45 32.1998ZM129.2 34.8998H125.15V28.4498H129.2C131.3 28.4498 132.5 30.2498 132.5 31.5998C132.35 33.2498 131.15 34.8998 129.2 34.8998ZM129.05 25.8998H122.3V44.6498H125.15V37.5998H129.05C132.2 37.5998 135.2 35.3498 135.2 31.7498C135.2 28.1498 132.2 25.8998 129.05 25.8998ZM92.45 42.5498C90.5 42.5498 88.85 40.8998 88.85 38.6498C88.85 36.3998 90.5 34.7498 92.45 34.7498C94.4 34.7498 95.9 36.3998 95.9 38.6498C95.9 40.8998 94.4 42.5498 92.45 42.5498ZM95.75 33.6998C95 32.9498 93.8 32.1998 92.3 32.1998C89.15 32.1998 86.15 35.0498 86.15 38.6498C86.15 42.2498 89 44.9498 92.3 44.9498C93.8 44.9498 95 44.1998 95.6 43.4498H95.75V44.3498C95.75 46.7498 94.4 48.0998 92.3 48.0998C90.65 48.0998 89.45 46.8998 89.15 45.8498L86.75 46.8998C87.5 48.5498 89.3 50.6498 92.45 50.6498C95.75 50.6498 98.45 48.6998 98.45 44.0498V32.6498H95.75V33.6998ZM100.25 44.6498H103.1V25.8998H100.25V44.6498ZM107.3 38.4998C107.3 36.0998 109.25 34.7498 110.6 34.7498C111.65 34.7498 112.7 35.3498 113 36.0998L107.3 38.4998ZM116 36.3998C115.4 34.8998 113.9 32.3498 110.6 32.3498C107.3 32.3498 104.6 34.8998 104.6 38.7998C104.6 42.3998 107.3 45.2498 110.9 45.2498C113.75 45.2498 115.55 43.4498 116.15 42.3998L114.05 40.8998C113.3 41.9498 112.4 42.6998 110.9 42.6998C109.4 42.6998 108.5 42.0998 107.75 40.7498L116.3 37.1498L116 36.3998ZM47.9 34.2998V36.9998H54.35C54.2 38.4998 53.6 39.6998 52.85 40.4498C51.95 41.3498 50.45 42.3998 47.9 42.3998C43.85 42.3998 40.85 39.2498 40.85 35.1998C40.85 31.1498 44 27.9998 47.9 27.9998C50 27.9998 51.65 28.8998 52.85 29.9498L54.8 27.9998C53.15 26.4998 51.05 25.2998 48.05 25.2998C42.65 25.2998 38 29.7998 38 35.1998C38 40.5998 42.65 45.0998 48.05 45.0998C51.05 45.0998 53.15 44.1998 54.95 42.2498C56.75 40.4498 57.35 37.8998 57.35 35.9498C57.35 35.3498 57.35 34.7498 57.2 34.2998H47.9ZM64.55 42.5498C62.6 42.5498 60.95 40.8998 60.95 38.6498C60.95 36.3998 62.6 34.7498 64.55 34.7498C66.5 34.7498 68.15 36.2498 68.15 38.6498C68.15 40.8998 66.5 42.5498 64.55 42.5498ZM64.55 32.3498C60.95 32.3498 58.1 35.0498 58.1 38.7998C58.1 42.3998 60.95 45.2498 64.55 45.2498C68.15 45.2498 71 42.5498 71 38.7998C71 34.8998 68.15 32.3498 64.55 32.3498ZM78.5 42.5498C76.55 42.5498 74.9 40.8998 74.9 38.6498C74.9 36.3998 76.55 34.7498 78.5 34.7498C80.45 34.7498 82.1 36.2498 82.1 38.6498C82.1 40.8998 80.45 42.5498 78.5 42.5498ZM78.5 32.3498C74.9 32.3498 72.05 35.0498 72.05 38.7998C72.05 42.3998 74.9 45.2498 78.5 45.2498C82.1 45.2498 84.95 42.5498 84.95 38.7998C84.95 34.8998 82.1 32.3498 78.5 32.3498Z" fill="white"/>
</g>
</svg>
