<svg width="443" height="640" viewBox="0 0 443 640" fill="none" xmlns="http://www.w3.org/2000/svg">
<path d="M370.4 33H332C328.7 33 326 35.7 326 39C326 51.2 316.2 60 304 60H141C128.8 60 119 51.2 119 39C119 35.7 116.3 33 113 33H74.6C52.7 33 35 50.7 35 72.5V805.5C35 827.3 52.7 845 74.6 845H370.4C392.3 845 410 827.3 410 805.5V72.5C410 50.7 392.3 33 370.4 33Z" fill="#E2E2EA"/>
<rect x="5" y="1" width="434" height="876" rx="67" stroke="#FA3C45" stroke-width="2"/>
<rect x="12.5" y="7.5" width="420" height="863" rx="60.5" stroke="#FA3C45"/>
<path d="M332 33.5H370.4C392.025 33.5 409.5 50.977 409.5 72.5V805.5C409.5 827.023 392.025 844.5 370.4 844.5H74.6C52.9753 844.5 35.5 827.023 35.5 805.5V72.5C35.5 50.977 52.9753 33.5 74.6 33.5H113C116.024 33.5 118.5 35.9761 118.5 39C118.5 51.5062 128.555 60.5 141 60.5H304C316.445 60.5 326.5 51.5062 326.5 39C326.5 35.9761 328.976 33.5 332 33.5Z" stroke="#FA3C45"/>
<rect x="199.5" y="31.5" width="44" height="10" rx="5" stroke="#FA3C45"/>
<circle cx="263" cy="37" r="7.5" stroke="#FA3C45"/>
<path d="M0 121C0 120.448 0.447715 120 1 120H5V152H1C0.447715 152 0 151.552 0 151V121Z" fill="#FA3C45"/>
<path d="M0 181C0 180.448 0.447715 180 1 180H5V242H1C0.447715 242 0 241.552 0 241V181Z" fill="#FA3C45"/>
<path d="M0 256C0 255.448 0.447715 255 1 255H5V316H1C0.447715 316 0 315.552 0 315V256Z" fill="#FA3C45"/>
<path d="M438 198H442C442.552 198 443 198.448 443 199V295C443 295.552 442.552 296 442 296H438V198Z" fill="#FA3C45"/>
<path opacity="0.35" d="M371.5 53C371.5 51.8034 372.47 50.8334 373.667 50.8334H390.333C391.53 50.8334 392.5 51.8034 392.5 53V59C392.5 60.1967 391.53 61.1667 390.333 61.1667H373.667C372.47 61.1667 371.5 60.1967 371.5 59V53Z" fill="#FA3C45" stroke="#FA3C45"/>
<path opacity="0.4" d="M394 54V58C394.805 57.6612 395.328 56.8731 395.328 56C395.328 55.1269 394.805 54.3388 394 54Z" fill="#FA3C45"/>
<path d="M373 53.6667C373 52.9303 373.597 52.3334 374.333 52.3334H389.667C390.403 52.3334 391 52.9303 391 53.6667V58.3334C391 59.0698 390.403 59.6667 389.667 59.6667H374.333C373.597 59.6667 373 59.0698 373 58.3334V53.6667Z" fill="#FA3C45"/>
<path fill-rule="evenodd" clip-rule="evenodd" d="M358.33 52.608C360.546 52.6081 362.677 53.4596 364.283 54.9863C364.404 55.1042 364.597 55.1027 364.716 54.983L365.872 53.8163C365.933 53.7556 365.966 53.6734 365.966 53.5878C365.965 53.5022 365.931 53.4204 365.87 53.3603C361.655 49.3208 355.005 49.3208 350.79 53.3603C350.729 53.4203 350.694 53.5021 350.693 53.5877C350.693 53.6733 350.726 53.7556 350.787 53.8163L351.943 54.983C352.062 55.1029 352.255 55.1044 352.376 54.9863C353.982 53.4595 356.114 52.608 358.33 52.608ZM358.33 56.4037C359.547 56.4036 360.721 56.8561 361.624 57.6733C361.746 57.7893 361.938 57.7868 362.057 57.6677L363.212 56.501C363.273 56.4398 363.307 56.3568 363.306 56.2705C363.305 56.1843 363.269 56.102 363.207 56.042C360.459 53.4856 356.203 53.4856 353.455 56.042C353.393 56.102 353.357 56.1843 353.357 56.2706C353.356 56.3569 353.39 56.4399 353.451 56.501L354.605 57.6677C354.724 57.7868 354.916 57.7893 355.038 57.6733C355.94 56.8567 357.113 56.4042 358.33 56.4037ZM360.643 58.9575C360.645 59.044 360.611 59.1274 360.549 59.188L358.552 61.2037C358.493 61.2629 358.413 61.2963 358.33 61.2963C358.247 61.2963 358.167 61.2629 358.108 61.2037L356.111 59.188C356.049 59.1274 356.015 59.0439 356.017 58.9574C356.019 58.8709 356.056 58.789 356.12 58.731C357.396 57.6521 359.264 57.6521 360.54 58.731C360.604 58.7891 360.641 58.871 360.643 58.9575Z" fill="#FA3C45"/>
<path fill-rule="evenodd" clip-rule="evenodd" d="M344.666 50.6666H343.666C343.114 50.6666 342.666 51.1143 342.666 51.6666V60.3333C342.666 60.8856 343.114 61.3333 343.666 61.3333H344.666C345.218 61.3333 345.666 60.8856 345.666 60.3333V51.6666C345.666 51.1143 345.218 50.6666 344.666 50.6666ZM338.999 53H339.999C340.552 53 340.999 53.4477 340.999 54V60.3333C340.999 60.8856 340.552 61.3333 339.999 61.3333H338.999C338.447 61.3333 337.999 60.8856 337.999 60.3333V54C337.999 53.4477 338.447 53 338.999 53ZM335.333 55.3333H334.333C333.78 55.3333 333.333 55.781 333.333 56.3333V60.3333C333.333 60.8856 333.78 61.3333 334.333 61.3333H335.333C335.885 61.3333 336.333 60.8856 336.333 60.3333V56.3333C336.333 55.781 335.885 55.3333 335.333 55.3333ZM330.666 57.3333H329.666C329.114 57.3333 328.666 57.781 328.666 58.3333V60.3333C328.666 60.8856 329.114 61.3333 329.666 61.3333H330.666C331.218 61.3333 331.666 60.8856 331.666 60.3333V58.3333C331.666 57.781 331.218 57.3333 330.666 57.3333Z" fill="#FA3C45"/>
<path d="M72.3203 61.2563C75.0083 61.2563 76.605 59.1543 76.605 55.5947C76.605 54.2544 76.3486 53.1265 75.8579 52.2549C75.1475 50.8999 73.9243 50.1675 72.3789 50.1675C70.0791 50.1675 68.4531 51.7129 68.4531 53.8809C68.4531 55.917 69.918 57.3965 71.9321 57.3965C73.1699 57.3965 74.1733 56.8179 74.6714 55.8145H74.6934C74.6934 55.8145 74.7227 55.8145 74.73 55.8145C74.7446 55.8145 74.7959 55.8145 74.7959 55.8145C74.7959 58.2314 73.8804 59.6743 72.335 59.6743C71.4268 59.6743 70.7236 59.1763 70.4819 58.3779H68.5996C68.9146 60.1138 70.3867 61.2563 72.3203 61.2563ZM72.3862 55.895C71.1704 55.895 70.3062 55.0308 70.3062 53.8223C70.3062 52.6431 71.2144 51.7422 72.3936 51.7422C73.5728 51.7422 74.481 52.6577 74.481 53.8516C74.481 55.0308 73.5947 55.895 72.3862 55.895Z" fill="#FA3C45"/>
<path d="M79.6961 61.1538C80.3919 61.1538 80.868 60.6558 80.868 59.9966C80.868 59.3301 80.3919 58.8394 79.6961 58.8394C79.0076 58.8394 78.5242 59.3301 78.5242 59.9966C78.5242 60.6558 79.0076 61.1538 79.6961 61.1538ZM79.6961 55.6606C80.3919 55.6606 80.868 55.1699 80.868 54.5107C80.868 53.8442 80.3919 53.3535 79.6961 53.3535C79.0076 53.3535 78.5242 53.8442 78.5242 54.5107C78.5242 55.1699 79.0076 55.6606 79.6961 55.6606Z" fill="#FA3C45"/>
<path d="M87.7237 61H89.5328V59.0298H90.961V57.4331H89.5328V50.4312H86.8668C84.9991 53.2437 83.5123 55.5947 82.5602 57.3452V59.0298H87.7237V61ZM84.3106 57.3672C85.5411 55.1992 86.6397 53.4634 87.6505 51.9692H87.753V57.4771H84.3106V57.3672Z" fill="#FA3C45"/>
<path d="M94.9896 61H96.8793V50.4312H94.997L92.2357 52.3647V54.1812L94.8651 52.3354H94.9896V61Z" fill="#FA3C45"/>
</svg>
