<svg width="24" height="24" viewBox="0 0 24 24" fill="none" xmlns="http://www.w3.org/2000/svg">
<path d="M16.9526 4.05193C15.6336 2.7509 13.8553 2.02148 12.0026 2.02148C10.1499 2.02148 8.37165 2.7509 7.0526 4.05193C4.0206 7.08693 5.3526 10.7379 6.6206 13.2209C6.7966 13.5639 6.9936 13.8989 7.1996 14.2259L11.1576 20.5309C11.2476 20.6743 11.3725 20.7925 11.5207 20.8744C11.6688 20.9564 11.8353 20.9993 12.0046 20.9993C12.1739 20.9993 12.3404 20.9564 12.4885 20.8744C12.6367 20.7925 12.7616 20.6743 12.8516 20.5309L16.8516 14.1609C17.0276 13.8779 17.1986 13.5879 17.3516 13.2919C18.6386 10.7879 20.0006 7.09993 16.9526 4.05193ZM15.5686 12.3769C15.4426 12.6239 15.2996 12.8649 15.1526 13.0989L12.0006 18.1199L8.8886 13.1639C8.7146 12.8869 8.5466 12.6039 8.3976 12.3119C6.7926 9.16693 6.8126 7.11893 8.4636 5.46593C9.40782 4.53913 10.678 4.0199 12.0011 4.0199C13.3242 4.0199 14.5944 4.53913 15.5386 5.46593C17.2006 7.12893 17.2096 9.19993 15.5686 12.3769V12.3769Z" fill="white"/>
<path d="M12 6C11.4067 6 10.8266 6.17595 10.3333 6.50559C9.83994 6.83524 9.45543 7.30377 9.22836 7.85195C9.0013 8.40013 8.94189 9.00333 9.05765 9.58527C9.1734 10.1672 9.45912 10.7018 9.87868 11.1213C10.2982 11.5409 10.8328 11.8266 11.4147 11.9424C11.9967 12.0581 12.5999 11.9987 13.1481 11.7716C13.6962 11.5446 14.1648 11.1601 14.4944 10.6667C14.8241 10.1734 15 9.59334 15 9C15 8.20435 14.6839 7.44129 14.1213 6.87868C13.5587 6.31607 12.7957 6 12 6ZM12 10C11.8022 10 11.6089 9.94135 11.4444 9.83147C11.28 9.72159 11.1518 9.56541 11.0761 9.38268C11.0004 9.19996 10.9806 8.99889 11.0192 8.80491C11.0578 8.61093 11.153 8.43275 11.2929 8.29289C11.4327 8.15304 11.6109 8.0578 11.8049 8.01921C11.9989 7.98063 12.2 8.00043 12.3827 8.07612C12.5654 8.15181 12.7216 8.27998 12.8315 8.44443C12.9414 8.60888 13 8.80222 13 9C13 9.26522 12.8946 9.51957 12.7071 9.70711C12.5196 9.89464 12.2652 10 12 10Z" fill="white"/>
</svg>
