<svg width="136" height="56" viewBox="0 0 136 56" fill="none" xmlns="http://www.w3.org/2000/svg">
<g clip-path="url(#clip0_1003_1789)">
<path d="M0 24.3362V29.2607C1.69536 29.2595 3.37431 29.5902 4.94079 30.2337C6.50727 30.8773 7.93052 31.8212 9.12912 33.0113C10.3274 34.201 11.2777 35.6134 11.9257 37.1679C12.5737 38.7224 12.9067 40.3884 12.9056 42.0707H17.8633C17.8588 37.3692 15.9755 32.8614 12.6265 29.5366C9.27759 26.2118 4.7366 24.3416 0 24.3362H0Z" fill="white"/>
<path d="M24.7944 15.4702H16.9375C20.9121 17.9704 24.28 21.3128 26.7994 25.2576V17.4589C26.799 16.9313 26.5876 16.4255 26.2116 16.0526C25.8357 15.6797 25.3259 15.4702 24.7944 15.4702Z" fill="white"/>
<path d="M4.93657 15.47H0V19.9038C5.92089 19.9099 11.5975 22.2472 15.7843 26.4028C19.9711 30.5584 22.326 36.1929 22.3323 42.07H26.7985V37.17C25.7887 31.7845 23.1596 26.8289 19.2572 22.9554C15.3548 19.082 10.3622 16.4723 4.93657 15.47Z" fill="white"/>
<path d="M38.9494 18.3982H35.8027V34.1412H38.9494V18.3982Z" fill="white"/>
<path d="M50.5199 25.2189C49.996 24.7462 49.3829 24.3814 48.7159 24.1458C47.2832 23.6464 45.7219 23.6464 44.2892 24.1458C43.622 24.3813 43.0086 24.746 42.4846 25.2189C41.9707 25.6891 41.5601 26.2596 41.2786 26.8947C40.9877 27.5874 40.8379 28.3305 40.8379 29.0811C40.8379 29.8317 40.9877 30.5748 41.2786 31.2676C41.5591 31.9044 41.9697 32.4765 42.4846 32.9476C43.0076 33.4207 43.6207 33.7853 44.2878 34.02C45.7203 34.5202 47.282 34.5202 48.7145 34.02C49.3818 33.7853 49.9951 33.4207 50.5185 32.9476C51.0331 32.4763 51.4437 31.9043 51.7244 31.2676C52.0153 30.5748 52.1651 29.8317 52.1651 29.0811C52.1651 28.3305 52.0153 27.5874 51.7244 26.8947C51.4432 26.2598 51.0331 25.6894 50.5199 25.2189ZM48.3591 30.9351C47.8495 31.3907 47.188 31.6428 46.5022 31.6428C45.8164 31.6428 45.1549 31.3907 44.6454 30.9351C44.2171 30.4103 43.9834 29.7554 43.9834 29.0801C43.9834 28.4047 44.2171 27.7498 44.6454 27.2251C45.1549 26.7694 45.8164 26.5173 46.5022 26.5173C47.188 26.5173 47.8495 26.7694 48.3591 27.2251C48.7874 27.7498 49.021 28.4047 49.021 29.0801C49.021 29.7554 48.7874 30.4103 48.3591 30.9351Z" fill="white"/>
<path d="M61.8182 25.3546H61.7787C61.6332 25.1518 61.4642 24.9667 61.2752 24.803C61.0462 24.6019 60.7927 24.4302 60.5206 24.292C59.8328 23.9417 59.0693 23.7631 58.2963 23.7719C57.6189 23.7601 56.949 23.914 56.3457 24.2199C55.7835 24.5088 55.2871 24.9093 54.8873 25.3966C54.4796 25.8988 54.1668 26.4701 53.9641 27.0829C53.7486 27.7142 53.6388 28.3763 53.639 29.0429C53.6311 29.7584 53.7519 30.4695 53.9959 31.1429C54.2169 31.7573 54.5615 32.3208 55.0086 32.7991C55.4541 33.2671 55.9947 33.6357 56.5946 33.8806C57.2469 34.1445 57.946 34.2754 58.6504 34.2656C59.1713 34.2566 59.6864 34.1544 60.1708 33.9639C60.714 33.7594 61.1847 33.4008 61.5241 32.9328H61.5665V33.9128C61.5783 34.2396 61.524 34.5656 61.4069 34.8713C61.2897 35.177 61.1121 35.4564 60.8845 35.6929C60.5957 35.9465 60.258 36.1393 59.8919 36.2597C59.5259 36.38 59.139 36.4253 58.7547 36.3929C58.1455 36.3996 57.5416 36.2789 56.9825 36.0387C56.4262 35.7919 55.9071 35.4696 55.4402 35.0811L53.699 37.6606C54.4107 38.2296 55.2426 38.6318 56.1327 38.8373C57.0135 39.0383 57.9144 39.1395 58.8182 39.139C60.8041 39.139 62.283 38.6427 63.2548 37.6501C64.2266 36.6575 64.7127 35.2033 64.7132 33.2877V24.0218H61.8218L61.8182 25.3546ZM61.6292 29.9669C61.5051 30.2632 61.3232 30.5322 61.094 30.7586C60.8606 30.9894 60.587 31.1763 60.2865 31.3102C59.9744 31.4477 59.6367 31.5188 59.2953 31.5188C58.9538 31.5188 58.6162 31.4477 58.3041 31.3102C58.0076 31.1744 57.7375 30.9876 57.5065 30.7586C57.2763 30.5303 57.0937 30.2593 56.9691 29.9609C56.8445 29.6626 56.7803 29.3427 56.7803 29.0198C56.7803 28.6968 56.8445 28.377 56.9691 28.0786C57.0937 27.7803 57.2763 27.5092 57.5065 27.281C57.7377 27.0519 58.0077 26.8649 58.3041 26.7287C58.6163 26.5916 58.9539 26.5208 59.2953 26.5208C59.6367 26.5208 59.9743 26.5916 60.2865 26.7287C60.5869 26.8631 60.8605 27.0502 61.094 27.281C61.4401 27.6263 61.6757 28.0656 61.7709 28.5436C61.8662 29.0215 61.8169 29.5167 61.6292 29.9669Z" fill="white"/>
<path d="M76.5336 25.2189C76.0097 24.7462 75.3965 24.3814 74.7296 24.1458C73.2969 23.6464 71.7356 23.6464 70.3029 24.1458C69.6357 24.3813 69.0222 24.746 68.4982 25.2189C67.9843 25.6891 67.5738 26.2596 67.2923 26.8947C67.0014 27.5874 66.8516 28.3305 66.8516 29.0811C66.8516 29.8317 67.0014 30.5748 67.2923 31.2676C67.5727 31.9044 67.9834 32.4765 68.4982 32.9476C69.0217 33.4209 69.6353 33.7855 70.3029 34.02C71.7354 34.5202 73.2971 34.5202 74.7296 34.02C75.3969 33.7853 76.0102 33.4207 76.5336 32.9476C77.0484 32.4765 77.4591 31.9044 77.7395 31.2676C78.0304 30.5748 78.1802 29.8317 78.1802 29.0811C78.1802 28.3305 78.0304 27.5874 77.7395 26.8947C77.458 26.2596 77.0474 25.6891 76.5336 25.2189ZM74.3727 30.9351C73.8632 31.3907 73.2017 31.6428 72.5159 31.6428C71.8301 31.6428 71.1686 31.3907 70.659 30.9351C70.2308 30.4103 69.9971 29.7554 69.9971 29.0801C69.9971 28.4047 70.2308 27.7498 70.659 27.2251C71.1686 26.7694 71.8301 26.5173 72.5159 26.5173C73.2017 26.5173 73.8632 26.7694 74.3727 27.2251C74.801 27.7498 75.0347 28.4047 75.0347 29.0801C75.0347 29.7554 74.801 30.4103 74.3727 30.9351Z" fill="white"/>
<path d="M82.3536 24.0913H80.666V34.1412H82.3536V24.0913Z" fill="white"/>
<path d="M81.5099 18.938C81.3463 18.9349 81.1838 18.9657 81.0328 19.0285C80.8819 19.0913 80.7458 19.1847 80.6333 19.3027C80.4617 19.4744 80.3452 19.6927 80.2984 19.93C80.2516 20.1674 80.2766 20.4132 80.3703 20.6364C80.464 20.8597 80.6222 21.0504 80.8249 21.1846C81.0277 21.3187 81.2659 21.3903 81.5095 21.3903C81.7532 21.3903 81.9914 21.3187 82.1941 21.1846C82.3969 21.0504 82.5551 20.8597 82.6488 20.6364C82.7425 20.4132 82.7675 20.1674 82.7207 19.93C82.6739 19.6927 82.5574 19.4744 82.3858 19.3027C82.2734 19.1846 82.1375 19.0912 81.9867 19.0284C81.8358 18.9656 81.6734 18.9348 81.5099 18.938Z" fill="white"/>
<path d="M94.8377 25.3407C94.3629 24.8596 93.7919 24.4826 93.1613 24.234C92.4693 23.9632 91.7309 23.8284 90.9871 23.8371C90.2865 23.8291 89.5936 23.9837 88.9639 24.2886C88.3436 24.5947 87.7945 25.026 87.3517 25.5549H87.3066V24.0919H85.6211V39.0383H87.3066V32.3603H87.3496C87.7078 32.9727 88.23 33.4747 88.8581 33.8107C89.5873 34.2159 90.4126 34.4199 91.2481 34.4015C91.9321 34.4058 92.6098 34.2704 93.2389 34.0039C93.8464 33.7481 94.3948 33.3717 94.8504 32.8979C95.313 32.4136 95.6768 31.845 95.9216 31.2235C96.4407 29.8675 96.4407 28.3696 95.9216 27.0137C95.6746 26.3907 95.3063 25.8222 94.8377 25.3407ZM94.2425 30.5907C94.0852 31.0282 93.8391 31.4291 93.5194 31.7686C93.1998 32.108 92.8134 32.3787 92.3842 32.564C91.4351 32.9498 90.3713 32.9498 89.4223 32.564C88.9924 32.3787 88.6055 32.1078 88.2855 31.768C87.9654 31.4282 87.7192 31.0267 87.5619 30.5886C87.2306 29.6361 87.2306 28.601 87.5619 27.6486C87.7192 27.2104 87.9654 26.809 88.2855 26.4692C88.6055 26.1294 88.9924 25.8584 89.4223 25.6732C90.3713 25.2874 91.4351 25.2874 92.3842 25.6732C92.814 25.8584 93.201 26.1294 93.521 26.4692C93.841 26.809 94.0873 27.2104 94.2446 27.6486C94.5758 28.601 94.5758 29.6361 94.2446 30.5886L94.2425 30.5907Z" fill="white"/>
<path d="M104.811 29.1205C104.491 28.8825 104.134 28.6976 103.753 28.5731C103.336 28.4333 102.91 28.322 102.477 28.2399C102.153 28.1849 101.831 28.1134 101.514 28.0257C101.232 27.9495 100.957 27.8488 100.692 27.7247C100.48 27.6292 100.289 27.4943 100.128 27.3271C99.9912 27.1776 99.9177 26.9816 99.9226 26.7797C99.9193 26.5619 99.9836 26.3483 100.107 26.1679C100.228 25.9897 100.386 25.8396 100.571 25.7276C100.769 25.6088 100.985 25.5219 101.21 25.47C101.441 25.4133 101.678 25.3844 101.916 25.3839C102.368 25.3699 102.815 25.4856 103.203 25.7171C103.553 25.9358 103.846 26.2337 104.057 26.5865L105.464 25.6632C105.152 25.0529 104.646 24.562 104.024 24.2667C103.398 23.9779 102.714 23.8313 102.023 23.8376C101.555 23.8365 101.089 23.9015 100.639 24.0308C100.208 24.1529 99.7987 24.3419 99.4269 24.5908C99.0713 24.8291 98.7753 25.1449 98.5615 25.5141C98.3402 25.9073 98.2282 26.3518 98.2372 26.8021C98.2195 27.2429 98.3203 27.6804 98.5291 28.0698C98.7196 28.3955 98.9855 28.6714 99.3049 28.8748C99.6574 29.0955 100.04 29.2654 100.44 29.3795C100.873 29.5083 101.328 29.6229 101.803 29.7232C102.078 29.7806 102.345 29.845 102.604 29.9164C102.847 29.9811 103.08 30.0786 103.296 30.2062C103.487 30.3185 103.653 30.4683 103.783 30.6465C103.913 30.8438 103.977 31.0766 103.967 31.3122C103.975 31.5597 103.907 31.8037 103.772 32.0122C103.638 32.2098 103.461 32.3749 103.253 32.4952C103.029 32.6279 102.784 32.7226 102.528 32.7752C102.269 32.8318 102.004 32.8606 101.739 32.8613C101.213 32.8815 100.692 32.7549 100.235 32.4959C99.8148 32.2304 99.445 31.8935 99.1427 31.5005L97.8027 32.5316C98.2175 33.171 98.8063 33.6806 99.5009 34.0016C100.213 34.2821 100.974 34.4173 101.74 34.3992C102.239 34.3996 102.736 34.3421 103.221 34.2277C103.683 34.1218 104.122 33.9365 104.519 33.6803C104.899 33.4303 105.213 33.0944 105.436 32.7003C105.678 32.253 105.798 31.7505 105.783 31.2429C105.797 30.8065 105.708 30.373 105.524 29.9766C105.356 29.6405 105.112 29.3475 104.811 29.1205Z" fill="white"/>
<path d="M116.97 31.7577V24.0913H115.282V28.9913C115.287 29.5196 115.226 30.0464 115.098 30.5593C114.99 30.999 114.798 31.4142 114.534 31.7829C114.283 32.1257 113.947 32.3991 113.56 32.5774C113.114 32.7738 112.631 32.8695 112.143 32.8574C111.814 32.8839 111.482 32.8314 111.177 32.7043C110.872 32.5773 110.603 32.3794 110.391 32.1273C109.985 31.5418 109.787 30.8395 109.827 30.1302V24.0913H108.139V30.2975C108.134 30.8601 108.21 31.4205 108.366 31.9614C108.502 32.441 108.743 32.8849 109.071 33.2613C109.4 33.6293 109.811 33.9168 110.27 34.1013C110.818 34.3135 111.402 34.4158 111.99 34.4023C112.386 34.4055 112.779 34.351 113.159 34.2406C113.501 34.1416 113.828 33.9973 114.132 33.8115C114.408 33.6428 114.659 33.4369 114.878 33.1997C115.075 32.9887 115.239 32.7497 115.365 32.4906H115.408C115.408 32.7776 115.416 33.0576 115.43 33.3306C115.445 33.6036 115.452 33.8757 115.451 34.1468H117.053C117.053 33.8169 117.038 33.4517 117.009 33.0513C116.98 32.6509 116.967 32.2197 116.97 31.7577Z" fill="white"/>
<path d="M135.209 26.293C135.096 25.8067 134.874 25.352 134.559 24.963C134.241 24.5866 133.832 24.2974 133.369 24.123C132.787 23.9144 132.171 23.8161 131.552 23.8332C130.88 23.8041 130.216 23.9802 129.648 24.3379C129.122 24.7126 128.68 25.1917 128.35 25.7449C128.264 25.5727 128.152 25.3758 128.015 25.1541C127.862 24.9147 127.668 24.7039 127.441 24.5311C127.163 24.3213 126.854 24.156 126.524 24.0411C126.082 23.8934 125.617 23.8242 125.15 23.8367C124.755 23.8335 124.361 23.8879 123.982 23.9984C123.64 24.0974 123.312 24.2417 123.008 24.4275C122.732 24.5965 122.481 24.8023 122.262 25.0393C122.065 25.2503 121.901 25.4893 121.775 25.7484H121.732C121.732 25.4614 121.725 25.1828 121.711 24.9084C121.697 24.634 121.689 24.3645 121.689 24.0922H120.088C120.088 24.4221 120.102 24.7873 120.131 25.1877C120.16 25.5881 120.174 26.0177 120.174 26.4764V34.1421H121.863V29.2463C121.858 28.7178 121.919 28.1907 122.047 27.6776C122.155 27.2377 122.346 26.8224 122.611 26.454C122.862 26.1111 123.197 25.8376 123.584 25.6595C124.03 25.4629 124.514 25.3673 125.002 25.3795C125.291 25.355 125.581 25.4069 125.843 25.5298C126.105 25.6528 126.33 25.8424 126.494 26.0795C126.856 26.816 127.014 27.6354 126.949 28.4525V34.1435H128.633V28.3433C128.628 27.93 128.698 27.5191 128.839 27.1302C128.964 26.7854 129.156 26.4682 129.403 26.1964C129.637 25.9419 129.92 25.7373 130.236 25.5951C130.555 25.4516 130.902 25.3783 131.253 25.3802C131.67 25.3652 132.084 25.4459 132.465 25.6161C132.764 25.7598 133.024 25.9739 133.221 26.2398C133.411 26.503 133.544 26.8027 133.611 27.1197C133.683 27.4514 133.72 27.7898 133.719 28.1291V34.1421H135.403V28.043C135.409 27.454 135.344 26.8664 135.209 26.293Z" fill="white"/>
</g>
<defs>
<clipPath id="clip0_1003_1789">
<rect width="135.403" height="56" fill="white"/>
</clipPath>
</defs>
</svg>
