<svg width="24" height="24" viewBox="0 0 24 24" fill="none" xmlns="http://www.w3.org/2000/svg">
<path d="M22.1919 15.489L22.1539 14.662L15.6709 13.736L14.3559 16.31C12.9675 15.5283 11.6983 14.5517 10.5869 13.41C9.43248 12.3004 8.4488 11.0259 7.66788 9.62801L10.4679 8.22801L7.66788 1.70801L6.90789 1.81801C5.62075 1.99531 4.42827 2.59296 3.51589 3.51801C0.342885 6.68701 1.58589 12.9 6.34388 17.657C9.32589 20.638 12.8769 22.239 15.8949 22.238C16.7384 22.2674 17.5793 22.1274 18.3679 21.8263C19.1564 21.5252 19.8766 21.0691 20.4859 20.485C21.1083 19.8208 21.5822 19.0319 21.8764 18.1705C22.1705 17.3092 22.278 16.3951 22.1919 15.489V15.489ZM19.0719 19.071C16.7719 21.371 11.5909 20.071 7.75788 16.243C3.92489 12.415 2.62989 7.22901 4.92989 4.92901C5.35862 4.49451 5.88336 4.16672 6.46188 3.97201L7.88189 7.28501L6.77489 7.83801C6.53509 7.95811 6.32175 8.12498 6.14744 8.3288C5.97313 8.53262 5.84137 8.76926 5.75992 9.02478C5.67847 9.28031 5.64899 9.54955 5.6732 9.81664C5.6974 10.0837 5.77482 10.3433 5.90089 10.58C6.77623 12.1482 7.87696 13.5794 9.16788 14.828C10.4168 16.1045 11.8423 17.1952 13.4009 18.067C13.6411 18.1974 13.905 18.2785 14.177 18.3054C14.4491 18.3324 14.7237 18.3047 14.9849 18.224C15.2403 18.1445 15.4769 18.014 15.6804 17.8404C15.884 17.6668 16.0501 17.4537 16.1689 17.214L16.8159 15.92L20.1829 16.401C20.1445 17.3954 19.7502 18.3429 19.0719 19.071V19.071Z" fill="white"/>
</svg>
