<svg width="136" height="28" viewBox="0 0 136 28" fill="none" xmlns="http://www.w3.org/2000/svg">
<path d="M0 9.33618V14.2607C1.69536 14.2595 3.37431 14.5902 4.94079 15.2337C6.50727 15.8773 7.93052 16.8212 9.12912 18.0113C10.3274 19.201 11.2777 20.6134 11.9257 22.1679C12.5737 23.7224 12.9067 25.3884 12.9056 27.0707H17.8633C17.8588 22.3692 15.9755 17.8614 12.6265 14.5366C9.27759 11.2118 4.7366 9.34156 0 9.33618H0Z" fill="white"/>
<path d="M24.7944 0.470215H16.9375C20.9121 2.97036 24.28 6.31277 26.7994 10.2576V2.45891C26.799 1.93135 26.5876 1.42552 26.2116 1.05261C25.8357 0.679693 25.3259 0.470215 24.7944 0.470215Z" fill="white"/>
<path d="M4.93657 0.469971H0V4.90377C5.92089 4.90988 11.5975 7.24719 15.7843 11.4028C19.9711 15.5584 22.326 21.1929 22.3323 27.07H26.7985V22.17C25.7887 16.7845 23.1596 11.8289 19.2572 7.95542C15.3548 4.08196 10.3622 1.47228 4.93657 0.469971Z" fill="white"/>
<path d="M38.9494 3.39819H35.8027V19.1412H38.9494V3.39819Z" fill="white"/>
<path d="M50.5199 10.2189C49.996 9.74619 49.3829 9.38144 48.7159 9.14575C47.2832 8.6464 45.7219 8.6464 44.2892 9.14575C43.622 9.38127 43.0086 9.74603 42.4846 10.2189C41.9707 10.6891 41.5601 11.2596 41.2786 11.8947C40.9877 12.5874 40.8379 13.3305 40.8379 14.0811C40.8379 14.8317 40.9877 15.5748 41.2786 16.2676C41.5591 16.9044 41.9697 17.4765 42.4846 17.9476C43.0076 18.4207 43.6207 18.7853 44.2878 19.02C45.7203 19.5202 47.282 19.5202 48.7145 19.02C49.3818 18.7853 49.9951 18.4207 50.5185 17.9476C51.0331 17.4763 51.4437 16.9043 51.7244 16.2676C52.0153 15.5748 52.1651 14.8317 52.1651 14.0811C52.1651 13.3305 52.0153 12.5874 51.7244 11.8947C51.4432 11.2598 51.0331 10.6894 50.5199 10.2189ZM48.3591 15.9351C47.8495 16.3907 47.188 16.6428 46.5022 16.6428C45.8164 16.6428 45.1549 16.3907 44.6454 15.9351C44.2171 15.4103 43.9834 14.7554 43.9834 14.0801C43.9834 13.4047 44.2171 12.7498 44.6454 12.2251C45.1549 11.7694 45.8164 11.5173 46.5022 11.5173C47.188 11.5173 47.8495 11.7694 48.3591 12.2251C48.7874 12.7498 49.021 13.4047 49.021 14.0801C49.021 14.7554 48.7874 15.4103 48.3591 15.9351Z" fill="white"/>
<path d="M61.8182 10.3546H61.7787C61.6332 10.1518 61.4642 9.96665 61.2752 9.80297C61.0462 9.60193 60.7927 9.43025 60.5206 9.29197C59.8328 8.94167 59.0693 8.76315 58.2963 8.77187C57.6189 8.76009 56.949 8.91395 56.3457 9.21987C55.7835 9.50882 55.2871 9.90933 54.8873 10.3966C54.4796 10.8988 54.1668 11.4701 53.9641 12.0829C53.7486 12.7142 53.6388 13.3763 53.639 14.0429C53.6311 14.7584 53.7519 15.4695 53.9959 16.1429C54.2169 16.7573 54.5615 17.3208 55.0086 17.7991C55.4541 18.2671 55.9947 18.6357 56.5946 18.8806C57.2469 19.1445 57.946 19.2754 58.6504 19.2656C59.1713 19.2566 59.6864 19.1544 60.1708 18.9639C60.714 18.7594 61.1847 18.4008 61.5241 17.9328H61.5665V18.9128C61.5783 19.2396 61.524 19.5656 61.4069 19.8713C61.2897 20.177 61.1121 20.4564 60.8845 20.6929C60.5957 20.9465 60.258 21.1393 59.8919 21.2597C59.5259 21.38 59.139 21.4253 58.7547 21.3929C58.1455 21.3996 57.5416 21.2789 56.9825 21.0387C56.4262 20.7919 55.9071 20.4696 55.4402 20.0811L53.699 22.6606C54.4107 23.2296 55.2426 23.6318 56.1327 23.8373C57.0135 24.0383 57.9144 24.1395 58.8182 24.139C60.8041 24.139 62.283 23.6427 63.2548 22.6501C64.2266 21.6575 64.7127 20.2033 64.7132 18.2877V9.02177H61.8218L61.8182 10.3546ZM61.6292 14.9669C61.5051 15.2632 61.3232 15.5322 61.094 15.7586C60.8606 15.9894 60.587 16.1763 60.2865 16.3102C59.9744 16.4477 59.6367 16.5188 59.2953 16.5188C58.9538 16.5188 58.6162 16.4477 58.3041 16.3102C58.0076 16.1744 57.7375 15.9876 57.5065 15.7586C57.2763 15.5303 57.0937 15.2593 56.9691 14.9609C56.8445 14.6626 56.7803 14.3427 56.7803 14.0198C56.7803 13.6968 56.8445 13.377 56.9691 13.0786C57.0937 12.7803 57.2763 12.5092 57.5065 12.281C57.7377 12.0519 58.0077 11.8649 58.3041 11.7287C58.6163 11.5916 58.9539 11.5208 59.2953 11.5208C59.6367 11.5208 59.9743 11.5916 60.2865 11.7287C60.5869 11.8631 60.8605 12.0502 61.094 12.281C61.4401 12.6263 61.6757 13.0656 61.7709 13.5436C61.8662 14.0215 61.8169 14.5167 61.6292 14.9669Z" fill="white"/>
<path d="M76.5336 10.2189C76.0097 9.74619 75.3965 9.38144 74.7296 9.14575C73.2969 8.6464 71.7356 8.6464 70.3029 9.14575C69.6357 9.38127 69.0222 9.74603 68.4982 10.2189C67.9843 10.6891 67.5738 11.2596 67.2923 11.8947C67.0014 12.5874 66.8516 13.3305 66.8516 14.0811C66.8516 14.8317 67.0014 15.5748 67.2923 16.2676C67.5727 16.9044 67.9834 17.4765 68.4982 17.9476C69.0217 18.4209 69.6353 18.7855 70.3029 19.02C71.7354 19.5202 73.2971 19.5202 74.7296 19.02C75.3969 18.7853 76.0102 18.4207 76.5336 17.9476C77.0484 17.4765 77.4591 16.9044 77.7395 16.2676C78.0304 15.5748 78.1802 14.8317 78.1802 14.0811C78.1802 13.3305 78.0304 12.5874 77.7395 11.8947C77.458 11.2596 77.0474 10.6891 76.5336 10.2189ZM74.3727 15.9351C73.8632 16.3907 73.2017 16.6428 72.5159 16.6428C71.8301 16.6428 71.1686 16.3907 70.659 15.9351C70.2308 15.4103 69.9971 14.7554 69.9971 14.0801C69.9971 13.4047 70.2308 12.7498 70.659 12.2251C71.1686 11.7694 71.8301 11.5173 72.5159 11.5173C73.2017 11.5173 73.8632 11.7694 74.3727 12.2251C74.801 12.7498 75.0347 13.4047 75.0347 14.0801C75.0347 14.7554 74.801 15.4103 74.3727 15.9351Z" fill="white"/>
<path d="M82.3536 9.09131H80.666V19.1412H82.3536V9.09131Z" fill="white"/>
<path d="M81.5099 3.93796C81.3463 3.93488 81.1838 3.96572 81.0328 4.02852C80.8819 4.09132 80.7458 4.18469 80.6333 4.30266C80.4617 4.47438 80.3452 4.69267 80.2984 4.93002C80.2516 5.16737 80.2766 5.41316 80.3703 5.63642C80.464 5.85967 80.6222 6.0504 80.8249 6.18456C81.0277 6.31872 81.2659 6.39031 81.5095 6.39031C81.7532 6.39031 81.9914 6.31872 82.1941 6.18456C82.3969 6.0504 82.5551 5.85967 82.6488 5.63642C82.7425 5.41316 82.7675 5.16737 82.7207 4.93002C82.6739 4.69267 82.5574 4.47438 82.3858 4.30266C82.2734 4.18464 82.1375 4.09123 81.9867 4.02842C81.8358 3.96562 81.6734 3.9348 81.5099 3.93796Z" fill="white"/>
<path d="M94.8377 10.3407C94.3629 9.85957 93.7919 9.48256 93.1613 9.23396C92.4693 8.96321 91.7309 8.82841 90.9871 8.83706C90.2865 8.82908 89.5936 8.98369 88.9639 9.28856C88.3436 9.59474 87.7945 10.026 87.3517 10.5549H87.3066V9.09186H85.6211V24.0383H87.3066V17.3603H87.3496C87.7078 17.9727 88.23 18.4747 88.8581 18.8107C89.5873 19.2159 90.4126 19.4199 91.2481 19.4015C91.9321 19.4058 92.6098 19.2704 93.2389 19.0039C93.8464 18.7481 94.3948 18.3717 94.8504 17.8979C95.313 17.4136 95.6768 16.845 95.9216 16.2235C96.4407 14.8675 96.4407 13.3696 95.9216 12.0137C95.6746 11.3907 95.3063 10.8222 94.8377 10.3407ZM94.2425 15.5907C94.0852 16.0282 93.8391 16.4291 93.5194 16.7686C93.1998 17.108 92.8134 17.3787 92.3842 17.564C91.4351 17.9498 90.3713 17.9498 89.4223 17.564C88.9924 17.3787 88.6055 17.1078 88.2855 16.768C87.9654 16.4282 87.7192 16.0267 87.5619 15.5886C87.2306 14.6361 87.2306 13.601 87.5619 12.6486C87.7192 12.2104 87.9654 11.809 88.2855 11.4692C88.6055 11.1294 88.9924 10.8584 89.4223 10.6732C90.3713 10.2874 91.4351 10.2874 92.3842 10.6732C92.814 10.8584 93.201 11.1294 93.521 11.4692C93.841 11.809 94.0873 12.2104 94.2446 12.6486C94.5758 13.601 94.5758 14.6361 94.2446 15.5886L94.2425 15.5907Z" fill="white"/>
<path d="M104.811 14.1205C104.491 13.8825 104.134 13.6976 103.753 13.5731C103.336 13.4333 102.91 13.322 102.477 13.2399C102.153 13.1849 101.831 13.1134 101.514 13.0257C101.232 12.9495 100.957 12.8488 100.692 12.7247C100.48 12.6292 100.289 12.4943 100.128 12.3271C99.9912 12.1776 99.9177 11.9816 99.9226 11.7797C99.9193 11.5619 99.9836 11.3483 100.107 11.1679C100.228 10.9897 100.386 10.8396 100.571 10.7276C100.769 10.6088 100.985 10.5219 101.21 10.47C101.441 10.4133 101.678 10.3844 101.916 10.3839C102.368 10.3699 102.815 10.4856 103.203 10.7171C103.553 10.9358 103.846 11.2337 104.057 11.5865L105.464 10.6632C105.152 10.0529 104.646 9.56197 104.024 9.2667C103.398 8.97785 102.714 8.83127 102.023 8.8376C101.555 8.83649 101.089 8.90154 100.639 9.0308C100.208 9.15287 99.7987 9.34188 99.4269 9.5908C99.0713 9.82906 98.7753 10.1449 98.5615 10.5141C98.3402 10.9073 98.2282 11.3518 98.2372 11.8021C98.2195 12.2429 98.3203 12.6804 98.5291 13.0698C98.7196 13.3955 98.9855 13.6714 99.3049 13.8748C99.6574 14.0955 100.04 14.2654 100.44 14.3795C100.873 14.5083 101.328 14.6229 101.803 14.7232C102.078 14.7806 102.345 14.845 102.604 14.9164C102.847 14.9811 103.08 15.0786 103.296 15.2062C103.487 15.3185 103.653 15.4683 103.783 15.6465C103.913 15.8438 103.977 16.0766 103.967 16.3122C103.975 16.5597 103.907 16.8037 103.772 17.0122C103.638 17.2098 103.461 17.3749 103.253 17.4952C103.029 17.6279 102.784 17.7226 102.528 17.7752C102.269 17.8318 102.004 17.8606 101.739 17.8613C101.213 17.8815 100.692 17.7549 100.235 17.4959C99.8148 17.2304 99.445 16.8935 99.1427 16.5005L97.8027 17.5316C98.2175 18.171 98.8063 18.6806 99.5009 19.0016C100.213 19.2821 100.974 19.4173 101.74 19.3992C102.239 19.3996 102.736 19.3421 103.221 19.2277C103.683 19.1218 104.122 18.9365 104.519 18.6803C104.899 18.4303 105.213 18.0944 105.436 17.7003C105.678 17.253 105.798 16.7505 105.783 16.2429C105.797 15.8065 105.708 15.373 105.524 14.9766C105.356 14.6405 105.112 14.3475 104.811 14.1205Z" fill="white"/>
<path d="M116.97 16.7577V9.09131H115.282V13.9913C115.287 14.5196 115.226 15.0464 115.098 15.5593C114.99 15.999 114.798 16.4142 114.534 16.7829C114.283 17.1257 113.947 17.3991 113.56 17.5774C113.114 17.7738 112.631 17.8695 112.143 17.8574C111.814 17.8839 111.482 17.8314 111.177 17.7043C110.872 17.5773 110.603 17.3794 110.391 17.1273C109.985 16.5418 109.787 15.8395 109.827 15.1302V9.09131H108.139V15.2975C108.134 15.8601 108.21 16.4205 108.366 16.9614C108.502 17.441 108.743 17.8849 109.071 18.2613C109.4 18.6293 109.811 18.9168 110.27 19.1013C110.818 19.3135 111.402 19.4158 111.99 19.4023C112.386 19.4055 112.779 19.351 113.159 19.2406C113.501 19.1416 113.828 18.9973 114.132 18.8115C114.408 18.6428 114.659 18.4369 114.878 18.1997C115.075 17.9887 115.239 17.7497 115.365 17.4906H115.408C115.408 17.7776 115.416 18.0576 115.43 18.3306C115.445 18.6036 115.452 18.8757 115.451 19.1468H117.053C117.053 18.8169 117.038 18.4517 117.009 18.0513C116.98 17.6509 116.967 17.2197 116.97 16.7577Z" fill="white"/>
<path d="M135.209 11.293C135.096 10.8067 134.874 10.352 134.559 9.96299C134.241 9.58658 133.832 9.29736 133.369 9.12298C132.787 8.91442 132.171 8.81612 131.552 8.83319C130.88 8.80406 130.216 8.98022 129.648 9.33789C129.122 9.71257 128.68 10.1917 128.35 10.7449C128.264 10.5727 128.152 10.3758 128.015 10.1541C127.862 9.91474 127.668 9.70387 127.441 9.53109C127.163 9.32133 126.854 9.156 126.524 9.04109C126.082 8.89341 125.617 8.82422 125.15 8.83668C124.755 8.83345 124.361 8.88794 123.982 8.99839C123.64 9.09739 123.312 9.24172 123.008 9.42749C122.732 9.59645 122.481 9.80232 122.262 10.0393C122.065 10.2503 121.901 10.4893 121.775 10.7484H121.732C121.732 10.4614 121.725 10.1828 121.711 9.90839C121.697 9.63399 121.689 9.36449 121.689 9.09219H120.088C120.088 9.42212 120.102 9.78728 120.131 10.1877C120.16 10.5881 120.174 11.0177 120.174 11.4764V19.1421H121.863V14.2463C121.858 13.7178 121.919 13.1907 122.047 12.6776C122.155 12.2377 122.346 11.8224 122.611 11.454C122.862 11.1111 123.197 10.8376 123.584 10.6595C124.03 10.4629 124.514 10.3673 125.002 10.3795C125.291 10.355 125.581 10.4069 125.843 10.5298C126.105 10.6528 126.33 10.8424 126.494 11.0795C126.856 11.816 127.014 12.6354 126.949 13.4525V19.1435H128.633V13.3433C128.628 12.93 128.698 12.5191 128.839 12.1302C128.964 11.7854 129.156 11.4682 129.403 11.1964C129.637 10.9419 129.92 10.7373 130.236 10.5951C130.555 10.4516 130.902 10.3783 131.253 10.3802C131.67 10.3652 132.084 10.4459 132.465 10.6161C132.764 10.7598 133.024 10.9739 133.221 11.2398C133.411 11.503 133.544 11.8027 133.611 12.1197C133.683 12.4514 133.72 12.7898 133.719 13.1291V19.1421H135.403V13.043C135.409 12.454 135.344 11.8664 135.209 11.293Z" fill="white"/>
</svg>
